<?xml version="1.0" standalone="no"?> 
<!DOCTYPE svg PUBLIC "-//W3C//DTD SVG 1.1//EN" "http://www.w3.org/Graphics/SVG/1.1/DTD/svg11.dtd" >
<svg xmlns="http://www.w3.org/2000/svg">
<defs>
  <font id="Nucleo-24" horiz-adv-x="256">
    <font-face font-family="Nucleo-24"
      units-per-em="256" ascent="256"
      descent="0" />
    <missing-glyph horiz-adv-x="0" />
    <glyph glyph-name="2x-drag-down"
      unicode="&#xEA01;"
      horiz-adv-x="256" d=" M58.251 222.547C42.543 218.975 29.351 206.885 24.077 191.228C21.077 182.322 21.222 168.825 24.414 159.78C29.824 144.451 44.877 131.316 59.25 129.382L64 128.742L64 84.131L64 39.52L45.168 58.333L26.335 77.146L23.168 73.538C21.425 71.554 20 69.605 20 69.208C20 68.81 31.141 57.351 44.757 43.742L69.515 19L94.495 43.995L119.476 68.991L115.735 72.732L111.993 76.473L93.737 58.237C83.696 48.206 75.147 40 74.74 40C74.333 40 74 59.814 74 84.031C74 118.413 74.274 128.136 75.25 128.395C75.938 128.578 78.75 129.255 81.5 129.901C89.399 131.755 96.538 135.858 102.849 142.169C112.46 151.78 117 162.634 117 176C117 191.909 110.427 204.748 97.206 214.667C87.006 222.317 71.254 225.504 58.251 222.547M186.251 222.547C170.543 218.975 157.351 206.885 152.077 191.228C149.077 182.322 149.222 168.825 152.414 159.78C157.824 144.451 172.877 131.316 187.25 129.382L192 128.742L192 84.131L192 39.52L173.168 58.333L154.335 77.146L151.168 73.538C149.425 71.554 148 69.605 148 69.208C148 68.81 159.141 57.351 172.757 43.742L197.515 19L222.495 43.995L247.476 68.991L243.735 72.732L239.993 76.473L221.737 58.237C211.696 48.206 203.147 40 202.74 40C202.333 40 202 59.814 202 84.031C202 118.413 202.274 128.136 203.25 128.395C203.938 128.578 206.75 129.255 209.5 129.901C217.399 131.755 224.538 135.858 230.849 142.169C240.46 151.78 245 162.634 245 176C245 191.909 238.427 204.748 225.206 214.667C215.006 222.317 199.254 225.504 186.251 222.547M85.142 209.703C91.849 206.633 99.607 199.175 102.799 192.729C111.8 174.547 104.207 151.977 85.838 142.315C80.928 139.732 79.617 139.507 69.5 139.504C59.739 139.5 57.947 139.782 53.588 142C45.849 145.938 39.457 152.325 35.781 159.794C32.769 165.911 32.5 167.24 32.5 175.979C32.5 184.145 32.87 186.289 35.101 191.046C39.596 200.63 45.709 206.409 55.892 210.704C63.658 213.979 76.778 213.53 85.142 209.703M213.142 209.703C219.849 206.633 227.607 199.175 230.799 192.729C239.8 174.547 232.207 151.977 213.838 142.315C208.928 139.732 207.617 139.507 197.5 139.504C187.739 139.5 185.947 139.782 181.588 142C173.849 145.938 167.457 152.325 163.781 159.794C160.769 165.911 160.5 167.24 160.5 175.979C160.5 184.145 160.87 186.289 163.101 191.046C167.596 200.63 173.709 206.409 183.892 210.704C191.658 213.979 204.778 213.53 213.142 209.703" />
    <glyph glyph-name="2x-drag-up"
      unicode="&#xEA03;"
      horiz-adv-x="256" d=" M44.526 201.026L19.562 176.047L22.999 172.501L26.436 168.955L45.218 187.718L64 206.48L64 161.759L64 117.038L61.25 116.429C46.672 113.202 36.492 106.377 28.955 94.779C23.604 86.544 21.668 78.442 22.161 66.353C22.508 57.854 23 55.567 25.746 49.712C29.332 42.068 38.097 32.201 44.786 28.28C55.968 21.725 72.044 19.988 84.133 24.028C105.371 31.125 118.185 50.132 116.737 72.386C116.075 82.548 113.204 90.3 107.15 98.272C99.813 107.932 90.754 113.344 76.75 116.432L74 117.038L74 161.019C74 185.209 74.333 205 74.74 205C75.147 205 83.696 196.794 93.737 186.763L111.993 168.527L115.737 172.27L119.481 176.014L94.485 201.01L69.49 226.005L44.526 201.026M172.526 201.026L147.562 176.047L150.999 172.501L154.436 168.955L173.218 187.718L192 206.48L192 161.759L192 117.038L189.25 116.429C174.672 113.202 164.492 106.377 156.955 94.779C151.604 86.544 149.668 78.442 150.161 66.353C150.508 57.854 151 55.567 153.746 49.712C157.332 42.068 166.097 32.201 172.786 28.28C183.968 21.725 200.044 19.988 212.133 24.028C233.371 31.125 246.185 50.132 244.737 72.386C244.075 82.548 241.204 90.3 235.15 98.272C227.813 107.932 218.754 113.344 204.75 116.432L202 117.038L202 161.019C202 185.209 202.333 205 202.74 205C203.147 205 211.696 196.794 221.737 186.763L239.993 168.527L243.737 172.27L247.481 176.014L222.485 201.01L197.49 226.005L172.526 201.026M77.201 105.877C84.701 104.287 89.578 101.555 95.474 95.641C104.462 86.625 108.134 75.334 106.022 63.208C104.582 54.935 102.027 49.966 95.862 43.448C76.111 22.564 40.67 32.048 33.024 60.263C29.798 72.164 34.161 87.079 43.432 95.847C53.477 105.348 64.397 108.591 77.201 105.877M205.201 105.877C212.701 104.287 217.578 101.555 223.474 95.641C232.462 86.625 236.134 75.334 234.022 63.208C232.582 54.935 230.027 49.966 223.862 43.448C204.111 22.564 168.67 32.048 161.024 60.263C157.798 72.164 162.161 87.079 171.432 95.847C181.477 105.348 192.397 108.591 205.201 105.877" />
    <glyph glyph-name="2x-swipe-down"
      unicode="&#xEA04;"
      horiz-adv-x="256" d=" M216.734 222.97C211.05 221.543 205.93 218.623 201.618 214.348C197.207 209.976 193.024 201.871 193.01 197.667C193.004 196.108 192.662 195.004 192.25 195.212C179.187 201.799 177.952 202.196 170.588 202.167C165.314 202.146 161.774 201.528 158.254 200.014C152.471 197.526 145.137 190.374 141.833 184L139.5 179.5L139.227 100.25L138.953 21L143.953 21L148.953 21L149.226 98.75L149.5 176.5L152.305 181.272C155.969 187.505 161.267 190.966 168.248 191.686C174.951 192.378 179.965 190.848 184.743 186.653C192.343 179.98 191.953 184.735 191.978 98.25L192 21L197 21L202 21L202.217 90.75C202.336 129.112 202.448 168.609 202.467 178.519C202.499 195.749 202.609 196.75 205 201.378C206.459 204.203 209.31 207.524 211.848 209.358C215.83 212.235 216.849 212.5 223.934 212.5C230.742 212.5 232.141 212.172 235.585 209.766C240.831 206.103 243.764 201.519 244.986 195.071C245.621 191.726 246 158.175 246 105.364L246 21L251.031 21L256.062 21L255.781 110.25L255.5 199.5L252.887 205C247.824 215.657 237.921 222.561 226.414 223.456C223.161 223.709 218.806 223.491 216.734 222.97M64 134.26L64 71.52L45.168 90.333L26.335 109.146L23.168 105.538C21.425 103.554 20 101.605 20 101.208C20 100.81 31.141 89.351 44.757 75.742L69.515 51L94.495 75.995L119.476 100.991L115.735 104.732L111.993 108.473L93.737 90.237C83.696 80.206 75.147 72 74.74 72C74.333 72 74 100.125 74 134.5L74 197L69 197L64 197L64 134.26" />
    <glyph glyph-name="2x-swipe-left"
      unicode="&#xEA02;"
      horiz-adv-x="256" d=" M216.734 222.97C211.05 221.543 205.93 218.623 201.618 214.348C197.207 209.976 193.024 201.871 193.01 197.667C193.004 196.108 192.662 195.004 192.25 195.212C179.187 201.799 177.952 202.196 170.588 202.167C161.202 202.13 154.944 199.56 148.741 193.195C140.557 184.797 139.55 181.756 139.16 164.25L138.821 149L89.41 149C62.235 149 40 149.333 40 149.74C40 150.147 48.206 158.696 58.237 168.737L76.473 186.993L72.975 190.492L69.476 193.991L44.495 168.995L19.515 144L44.495 119.005L69.476 94.009L72.975 97.508L76.473 101.007L58.237 119.263C48.206 129.304 40 137.853 40 138.26C40 138.667 62.275 139 89.5 139L139 139L139 80L139 21L143.976 21L148.953 21L149.226 98.75L149.5 176.5L152.305 181.272C155.969 187.505 161.267 190.966 168.248 191.686C174.951 192.378 179.965 190.848 184.743 186.653C192.343 179.98 191.953 184.735 191.978 98.25L192 21L197 21L202 21L202.217 90.75C202.336 129.112 202.448 168.609 202.467 178.519C202.499 195.749 202.609 196.75 205 201.378C206.459 204.203 209.31 207.524 211.848 209.358C215.83 212.235 216.849 212.5 223.934 212.5C230.742 212.5 232.141 212.172 235.585 209.766C240.831 206.103 243.764 201.519 244.986 195.071C245.621 191.726 246 158.175 246 105.364L246 21L251.031 21L256.062 21L255.781 110.25L255.5 199.5L252.887 205C247.824 215.657 237.921 222.561 226.414 223.456C223.161 223.709 218.806 223.491 216.734 222.97" />
    <glyph glyph-name="2x-swipe-right"
      unicode="&#xEA05;"
      horiz-adv-x="256" d=" M88.734 222.97C83.05 221.543 77.93 218.623 73.618 214.348C69.207 209.976 65.024 201.871 65.01 197.667C65.004 196.108 64.662 195.004 64.25 195.212C51.187 201.799 49.952 202.196 42.588 202.167C37.314 202.146 33.774 201.528 30.254 200.014C24.471 197.526 17.137 190.374 13.833 184L11.5 179.5L11.227 100.25L10.953 21L15.953 21L20.953 21L21.226 98.75L21.5 176.5L24.305 181.272C27.969 187.505 33.267 190.966 40.248 191.686C46.951 192.378 51.965 190.848 56.743 186.653C64.343 179.98 63.953 184.735 63.978 98.25L64 21L69 21L74 21L74.217 90.75C74.336 129.112 74.448 168.609 74.467 178.519C74.499 195.749 74.609 196.75 77 201.378C78.459 204.203 81.31 207.524 83.848 209.358C87.83 212.235 88.849 212.5 95.934 212.5C102.742 212.5 104.141 212.172 107.585 209.766C112.831 206.103 115.764 201.519 116.986 195.071C117.621 191.726 118 158.175 118 105.364L118 21L123 21L128 21L128 80L128 139L177.74 139L227.48 139L208.721 120.221L189.962 101.443L193.756 97.739L197.549 94.034L222.517 119.017L247.485 144L222.517 168.983L197.549 193.966L193.756 190.261L189.962 186.557L208.721 167.779L227.48 149L177.828 149L128.177 149L127.838 174.25C127.506 199.068 127.455 199.594 124.887 205C119.824 215.657 109.921 222.561 98.414 223.456C95.161 223.709 90.806 223.491 88.734 222.97" />
    <glyph glyph-name="2x-swipe-up"
      unicode="&#xEA06;"
      horiz-adv-x="256" d=" M216.734 222.97C211.05 221.543 205.93 218.623 201.618 214.348C197.207 209.976 193.024 201.871 193.01 197.667C193.004 196.108 192.662 195.004 192.25 195.212C179.187 201.799 177.952 202.196 170.588 202.167C165.314 202.146 161.774 201.528 158.254 200.014C152.471 197.526 145.137 190.374 141.833 184L139.5 179.5L139.227 100.25L138.953 21L143.953 21L148.953 21L149.226 98.75L149.5 176.5L152.305 181.272C155.969 187.505 161.267 190.966 168.248 191.686C174.951 192.378 179.965 190.848 184.743 186.653C192.343 179.98 191.953 184.735 191.978 98.25L192 21L197 21L202 21L202.217 90.75C202.336 129.112 202.448 168.609 202.467 178.519C202.499 195.749 202.609 196.75 205 201.378C206.459 204.203 209.31 207.524 211.848 209.358C215.83 212.235 216.849 212.5 223.934 212.5C230.742 212.5 232.141 212.172 235.585 209.766C240.831 206.103 243.764 201.519 244.986 195.071C245.621 191.726 246 158.175 246 105.364L246 21L251.031 21L256.062 21L255.781 110.25L255.5 199.5L252.887 205C247.824 215.657 237.921 222.561 226.414 223.456C223.161 223.709 218.806 223.491 216.734 222.97M44.745 180.245C31.135 166.627 20 155.167 20 154.777C20 154.388 21.425 152.446 23.168 150.462L26.335 146.854L45.168 165.667L64 184.48L64 121.74L64 59L69 59L74 59L74 121.5C74 155.875 74.333 184 74.74 184C75.147 184 83.696 175.794 93.737 165.763L111.993 147.527L115.737 151.27L119.481 155.014L94.485 180.01L69.49 205.005L44.745 180.245" />
    <glyph glyph-name="2x-tap"
      unicode="&#xEA07;"
      horiz-adv-x="256" d=" M156 233.973C140.777 232.544 121.115 224.899 111.406 216.633C107.665 213.449 107.055 213.283 97 212.702C57.563 210.422 25.946 185.45 14.384 147.451C11.94 139.418 11.654 136.91 11.599 123C11.545 109.758 11.868 106.332 13.815 99.484C16.972 88.376 16.797 88.555 22.207 90.875L26.751 92.822L24.218 101.161C22.073 108.221 21.681 111.495 21.66 122.5C21.617 145.524 27.863 161.254 43.738 178.099C59.134 194.435 82.254 204.066 102.918 202.751L110.336 202.279L116.418 207.21C123.505 212.955 135.751 219.166 145 221.706C149.926 223.058 155.01 223.474 166 223.423C178.488 223.365 181.626 223.01 188.618 220.866C215.197 212.715 236.176 190.456 243.105 163.056C246.366 150.159 245.124 127.767 240.484 115.8C239.983 114.508 240.714 113.728 243.534 112.55C245.575 111.698 247.803 111 248.485 111C249.766 111 252.049 117.39 254.202 127C255.993 134.993 255.679 155.04 253.629 163.5C242.618 208.961 201.986 238.29 156 233.973M159.184 179.502C152.151 177.524 146.488 174.107 140.591 168.281C135.691 163.441 130.502 154.172 129.394 148.28L128.789 145.059L124.144 148.926C101.868 167.473 69.852 160.912 57.728 135.315L54.5 128.5L54.229 64.25L53.957 0L58.979 0L64 0L64 61.462C64 121.671 64.043 123.043 66.127 128.712C68.538 135.27 75.865 143.24 82.5 146.522C88.212 149.347 103.788 149.347 109.5 146.522C116.135 143.24 123.462 135.27 125.873 128.712C127.957 123.043 128 121.671 128 61.462L128 0L133 0L138 0L138.222 53.25C138.344 82.538 138.464 114.825 138.489 125C138.54 145.542 139.213 149.18 144.352 156.663C157.924 176.423 186.435 175.284 198.483 154.5C202.808 147.038 203 143.445 203 69.951L203 0L208.025 0L213.049 0L212.775 74.25L212.5 148.5L210.207 154.174C205.856 164.937 195.769 174.695 185 178.56C178.575 180.866 165.703 181.335 159.184 179.502" />
    <glyph glyph-name="3d-28"
      unicode="&#xEA08;"
      horiz-adv-x="256" d=" M78.384 166.75C48.837 128.112 23.429 94.911 21.921 92.97L19.18 89.439L75.683 49.97C106.76 28.261 132.717 10.5 133.367 10.5C135.064 10.5 247.144 89.087 246.793 90.03C246.198 91.629 133.475 236.929 132.802 236.964C132.419 236.984 107.93 205.388 78.384 166.75M127.76 73.17L127.5 26.34L80.761 59.062L34.021 91.783L80.761 152.828L127.5 213.874L127.76 166.937C127.903 141.122 127.903 98.927 127.76 73.17M185.603 152.503C210.739 120.055 231.348 92.973 231.402 92.321C231.505 91.068 140.964 27 139.091 27C138.311 27 138 53.376 138 119.583C138 177.673 138.354 212.042 138.951 211.833C139.474 211.65 160.467 184.952 185.603 152.503" />
    <glyph glyph-name="3d-29"
      unicode="&#xEA0A;"
      horiz-adv-x="256" d=" M128 204.003L128 179.006L96 163L64 146.994L64 104.583L64 62.173L45.25 52.492C34.938 47.168 26.126 42.457 25.669 42.025C24.829 41.229 28.492 33 29.687 33C30.042 33 39.03 37.503 49.659 43.007L68.986 53.013L101.101 36.95L133.216 20.886L165.358 36.792L197.5 52.697L217.358 42.79C228.28 37.341 237.337 33.021 237.485 33.191C237.633 33.361 238.716 35.407 239.891 37.738L242.028 41.976L222.764 51.609C212.169 56.907 203.169 61.75 202.765 62.371C202.361 62.992 202.023 82.4 202.014 105.5L201.998 147.5L170.249 163.5L138.5 179.5L138.233 204.25L137.965 229L132.983 229L128 229L128 204.003M159.495 157.259C173.523 150.252 185 144.285 185 144C185 143.715 173.418 137.696 159.262 130.625L133.525 117.768L107.762 130.618C93.593 137.686 82 143.705 82 143.994C82 144.546 131.961 169.846 133.245 169.943C133.655 169.974 145.467 164.267 159.495 157.259M102.007 121.996L128 108.993L128 71.993L128 34.993L101 48.5L74 62.007L74 98.504C74 122.347 74.349 135 75.007 135C75.561 135 87.711 129.148 102.007 121.996M192 98.504L192 62.007L166.007 49.004C151.711 41.852 139.556 36 138.995 36C138.316 36 138.063 48.107 138.238 72.25L138.5 108.5L164.5 121.702C178.8 128.962 190.838 134.925 191.25 134.952C191.662 134.978 192 118.577 192 98.504" />
    <glyph glyph-name="3d"
      unicode="&#xEA09;"
      horiz-adv-x="256" d=" M32.723 233.961C23.524 232.414 16.594 226.514 12.546 216.782C11.246 213.656 11 207.172 11 176.032L11 139L16 139L21 139L21.022 174.75C21.047 214.753 21.269 216.203 28.133 221.099C31.301 223.358 32.459 223.519 47.75 223.817L64 224.135L64 229.567L64 235L50.75 234.882C43.462 234.818 35.35 234.403 32.723 233.961M203 229.63L203 224L218.114 224C235.255 224 238.385 223.029 243.017 216.272L245.5 212.65L245.816 175.825L246.133 139L251.066 139L256 139L256 174.818C256 215.498 255.701 217.65 248.993 225.27C242.15 233.045 238.261 234.295 219.305 234.814L203 235.26L203 229.63M11 64L11 11L63.912 11L116.824 11L117.162 26.929C117.465 41.22 117.715 43.149 119.592 45.679C125.266 53.33 135.017 55.391 142.257 50.471C148.454 46.26 149.317 43.494 149.808 26.25L150.243 11L203.122 11L256 11L256 64L256 117L133.5 117L11 117L11 64M245.5 64L245.5 21.5L202.75 21.239L160 20.979L160 29.44C160 44.932 156.619 53.323 148.062 59.07C135.368 67.595 118.13 63.583 110.313 50.286C107.718 45.871 107.473 44.55 107.147 33.25L106.794 21L63.897 21L21 21L21 64.004L21 107.009L133.25 106.754L245.5 106.5L245.5 64" />
    <glyph glyph-name="3x-swipe-left"
      unicode="&#xEA0B;"
      horiz-adv-x="256" d=" M43.96 222.235C35.992 214.131 27.24 205.131 24.511 202.236L19.547 196.972L38.998 177.502L58.449 158.032L62.241 161.736L66.034 165.439L52.781 178.72L39.528 192L139.764 192L240 192L240 197.5L240 203L139.764 203L39.528 203L52.781 216.28L66.034 229.561L62.24 233.266L58.446 236.971L43.96 222.235M127.357 146.978C121.424 144.627 113.673 138.188 111.295 133.635C110.394 131.911 108.926 128.156 108.032 125.292L106.406 120.083L102.07 122.953C96.921 126.362 86.96 128.494 80.821 127.5C71.119 125.93 62.6 120.019 57.307 111.185L54.5 106.5L54.217 53.25L53.933 0L58.967 0L64 0L64.022 50.25C64.047 106.659 63.866 105.163 71.454 111.826C76.196 115.989 78.862 117 85.097 117C93.815 117 100.216 113.176 104.347 105.5C106.458 101.578 106.506 100.512 106.793 50.75L107.086 0L112.014 0L116.941 0L117.221 61.75C117.527 129.546 117.198 125.926 123.636 132.364C128.326 137.054 131.893 138.444 139.156 138.416C144.689 138.394 146.502 137.934 149.898 135.686C152.145 134.2 155.224 131.107 156.741 128.815L159.5 124.648L159.772 62.324L160.044 0L164.901 0L169.758 0L170.161 50.339L170.564 100.677L173.032 105.447C174.457 108.201 177.338 111.545 179.848 113.358C183.83 116.235 184.849 116.5 191.934 116.5C198.742 116.5 200.141 116.172 203.585 113.766C208.831 110.103 211.764 105.519 212.986 99.071C213.581 95.938 214 74.341 214 46.864L214 0L219.05 0L224.1 0L223.8 51.75L223.5 103.5L220.887 109C217.554 116.017 211.976 121.583 205 124.852C197.558 128.339 186.89 128.434 179.281 125.081C176.411 123.816 173.544 122.155 172.909 121.39C171.272 119.418 170 119.668 170 121.962C170 129.815 161.436 141.43 152.27 146.008C145.618 149.33 134.394 149.767 127.357 146.978" />
    <glyph glyph-name="3x-swipe-right"
      unicode="&#xEA0C;"
      horiz-adv-x="256" d=" M203.981 232.48L200.569 228.96L213.52 215.98L226.471 203L126.736 203L27 203L27 197.5L27 192L127.236 192L227.472 192L214.001 178.501L200.531 165.003L204.272 161.261L208.014 157.52L227.75 177.257L247.487 196.994L228.003 216.497C217.287 227.224 208.266 236 207.956 236C207.646 236 205.857 234.416 203.981 232.48M117.763 147.486C108.289 144.006 100.412 135.835 97.994 126.977C97.322 124.515 96.612 121.938 96.418 121.252C96.177 120.402 94.576 120.947 91.407 122.957C77.927 131.506 59.241 128.054 49.427 115.201C43.073 106.88 43 106.138 43 50.318L43 0L48 0L53 0L53.01 49.75L53.02 99.5L55.377 104.5C59.371 112.968 65.669 117 74.903 117C81.138 117 83.804 115.989 88.546 111.826C96.134 105.163 95.953 106.659 95.978 50.25L96 0L101 0L106 0L106.215 42.75C106.333 66.262 106.445 93.825 106.465 104C106.497 121.087 106.667 122.813 108.691 126.595C115.583 139.474 131.217 142.894 141.586 133.79C148.756 127.495 149.478 124.785 149.525 104C149.548 93.825 149.664 66.262 149.783 42.75L150 0L155 0L160 0L160.022 50.25C160.047 106.659 159.866 105.163 167.454 111.826C172.196 115.989 174.862 117 181.097 117C190.331 117 196.629 112.968 200.623 104.5L202.98 99.5L202.99 49.75L203 0L208 0L213 0L213 50.318C213 106.138 212.927 106.88 206.573 115.201C196.758 128.055 178.073 131.506 164.59 122.955C162.027 121.33 159.721 120 159.465 120C159.209 120 159 121.311 159 122.913C159 124.515 157.531 128.663 155.735 132.132C152.067 139.218 145.447 144.973 138.072 147.489C132.652 149.338 122.8 149.337 117.763 147.486" />
    <glyph glyph-name="3x-swipe-up"
      unicode="&#xEA0D;"
      horiz-adv-x="256" d=" M108.745 212.245C95.135 198.627 84 187.167 84 186.777C84 186.388 85.425 184.446 87.168 182.462L90.335 178.854L109.168 197.667L128 216.48L128 177.404L128 138.328L122.25 136.697C111.391 133.618 100.525 122.409 97.823 111.5C97.142 108.75 96.448 106.308 96.282 106.073C96.115 105.838 94.746 106.825 93.24 108.266C91.733 109.708 87.8 112.143 84.5 113.678C79.342 116.077 77.237 116.47 69.5 116.479C61.45 116.489 59.79 116.154 53.775 113.309C42.302 107.883 34.93 98.317 32.962 86.303C32.439 83.111 32.009 62.387 32.006 40.25L32 0L36.933 0L41.866 0L42.183 42.75L42.5 85.5L45.311 91.224C52.339 105.536 68.347 110.834 82.04 103.382C87.446 100.439 91.019 96.378 94.024 89.756C95.836 85.765 95.957 82.836 95.978 42.75L96 0L101 0L106 0L106.182 37.25C106.282 57.738 106.405 81.475 106.455 90C106.565 108.599 107.53 112.514 113.607 119.01C119.832 125.666 126.45 128.38 134.97 127.77C142.704 127.217 146.706 125.347 152.451 119.601C160.08 111.973 160 112.68 160 52.822L160 0L164.9 0L169.801 0L170.234 41.75C170.733 89.852 170.854 90.637 179.067 99.068C187.291 107.512 199.363 109.193 210.04 103.382C215.446 100.439 219.019 96.378 222.024 89.756C223.836 85.765 223.957 82.836 223.978 42.75L224 0L229 0L234 0L234 43.962C234 95.027 234.087 94.471 224.447 104.884C216.62 113.338 209.381 116.448 197.5 116.46C189.831 116.467 187.652 116.073 182.765 113.796C179.61 112.326 175.5 109.958 173.631 108.532L170.234 105.941L169.608 109.22C168.484 115.107 164.402 122.44 159.544 127.299C154.358 132.484 151.277 134.348 143.551 136.974L138.5 138.69L138.238 177.345C138.094 198.605 138.315 216 138.728 216C139.142 216 147.696 207.794 157.737 197.763L175.993 179.527L179.737 183.27L183.481 187.014L158.485 212.01L133.49 237.005L108.745 212.245" />
    <glyph glyph-name="3x-tap"
      unicode="&#xEA0F;"
      horiz-adv-x="256" d=" M125.5 233.947C107.075 231.907 87.816 220.768 77.97 206.456L75.083 202.26L67.034 202.156C51.927 201.96 39.655 196.66 28.484 185.505C18.008 175.045 11.063 160.035 11.015 147.75L11 144L15.822 144L20.645 144L21.728 151C25.62 176.142 47.637 193.635 72.934 191.685L80.549 191.097L83.202 195.817C89.119 206.343 102.174 216.822 114.81 221.188C124.324 224.476 142.553 224.457 151.887 221.15C163.935 216.881 174.691 208.601 181.965 197.996L185.74 192.492L193.62 191.248C214.672 187.925 230.654 172.184 234.16 151.32L235.39 144L240.195 144L245 144L244.985 147.75C244.96 154.057 242.145 163.932 238.267 171.311C230.604 185.894 214.679 197.859 198.706 201.034C192.307 202.306 191.904 202.568 187.084 208.582C179.13 218.508 167.787 226.452 155.629 230.612C149.492 232.712 146.585 233.261 135.5 234.411C133.85 234.582 129.35 234.373 125.5 233.947M117.763 179.486C108.289 176.006 100.412 167.835 97.994 158.977C97.322 156.515 96.612 153.938 96.418 153.252C96.177 152.402 94.576 152.947 91.407 154.957C77.927 163.506 59.241 160.054 49.427 147.201C42.961 138.732 43 139.191 43 71.818L43 11L48 11L53 11L53.01 71.25L53.02 131.5L55.377 136.5C59.371 144.968 65.669 149 74.903 149C81.138 149 83.804 147.989 88.546 143.826C96.249 137.062 95.953 139.931 95.978 71.75L96 11L101 11L106 11L106.215 64.25C106.333 93.538 106.445 125.825 106.465 136C106.497 153.087 106.667 154.813 108.691 158.595C115.583 171.474 131.217 174.894 141.586 165.79C148.756 159.495 149.478 156.785 149.525 136C149.548 125.825 149.664 93.538 149.783 64.25L150 11L155 11L160 11L160.022 71.75C160.047 139.931 159.751 137.062 167.454 143.826C172.196 147.989 174.862 149 181.097 149C190.331 149 196.629 144.968 200.623 136.5L202.98 131.5L202.99 71.25L203 11L208 11L213 11L213 71.818C213 139.191 213.039 138.732 206.573 147.201C196.758 160.055 178.073 163.506 164.59 154.955C162.027 153.33 159.721 152 159.465 152C159.209 152 159 153.311 159 154.913C159 156.515 157.531 160.663 155.735 164.132C152.067 171.218 145.447 176.973 138.072 179.489C132.652 181.338 122.8 181.337 117.763 179.486" />
    <glyph glyph-name="4x-swipe-left"
      unicode="&#xEA0E;"
      horiz-adv-x="256" d=" M43.96 222.235C35.992 214.131 27.24 205.131 24.511 202.236L19.547 196.972L38.998 177.502L58.449 158.032L62.241 161.736L66.034 165.439L52.781 178.72L39.528 192L139.764 192L240 192L240 197.5L240 203L139.764 203L39.528 203L52.781 216.28L66.034 229.561L62.24 233.266L58.446 236.971L43.96 222.235M101.479 137.947C94.911 137.067 89.471 134.175 84.334 128.833C79.601 123.911 76.432 118.192 75.468 112.833L74.808 109.166L70.421 111.948C64.234 115.872 58.093 117.362 50.588 116.759C38.827 115.815 27.964 107.866 24.016 97.314C22.102 92.197 22 89.601 22 45.962L22 0L26.971 0L31.942 0L32.221 46.324L32.5 92.648L35.259 96.816C36.776 99.108 39.855 102.2 42.102 103.686C45.498 105.934 47.311 106.394 52.844 106.416C60.107 106.444 63.674 105.054 68.364 100.364C74.682 94.045 74.471 95.837 74.805 45.75L75.111 0L80.024 0L84.936 0L85.218 56.25L85.5 112.5L88.305 117.272C91.969 123.505 97.267 126.966 104.248 127.686C110.951 128.378 115.965 126.848 120.743 122.653C128.171 116.131 127.953 118.143 127.978 55.75L128 0L132.866 0L137.733 0L138.202 45.25C138.653 88.81 138.749 90.653 140.776 94.595C149.184 110.942 170.586 110.942 179.301 94.595C181.313 90.82 181.487 89.055 181.525 72C181.548 61.825 181.664 41.463 181.783 26.75L182 0L187 0L192 0L192.022 34.25C192.047 72.761 192.153 73.415 199.454 79.826C204.196 83.989 206.862 85 213.097 85C222.331 85 228.629 80.968 232.623 72.5C234.954 67.557 234.981 67.117 234.99 33.75L235 0L240 0L245 0L245 34.318C245 72.582 244.65 75.241 238.573 83.201C228.758 96.055 210.073 99.506 196.59 90.955C194.027 89.33 191.721 88 191.465 88C191.209 88 191 89.311 191 90.913C191 92.515 189.531 96.663 187.735 100.132C179.069 116.872 157.938 122.184 142.295 111.554L138.538 109.002L137.455 113.751C135.239 123.464 129.162 131.126 120.572 135.036C113.696 138.165 108.744 138.92 101.479 137.947" />
    <glyph glyph-name="4x-swipe-right"
      unicode="&#xEA10;"
      horiz-adv-x="256" d=" M203.981 232.48L200.569 228.96L213.52 215.98L226.471 203L126.736 203L27 203L27 197.5L27 192L127.236 192L227.472 192L214.001 178.501L200.531 165.003L204.272 161.261L208.014 157.52L227.75 177.257L247.487 196.994L228.003 216.497C217.287 227.224 208.266 236 207.956 236C207.646 236 205.857 234.416 203.981 232.48M101.479 137.947C94.911 137.067 89.471 134.175 84.334 128.833C79.601 123.911 76.432 118.192 75.468 112.833L74.808 109.166L70.421 111.948C64.234 115.872 58.093 117.362 50.588 116.759C38.827 115.815 27.964 107.866 24.016 97.314C22.102 92.197 22 89.601 22 45.962L22 0L26.971 0L31.942 0L32.221 46.324L32.5 92.648L35.259 96.816C36.776 99.108 39.855 102.2 42.102 103.686C45.498 105.934 47.311 106.394 52.844 106.416C60.107 106.444 63.674 105.054 68.364 100.364C74.682 94.045 74.471 95.837 74.805 45.75L75.111 0L80.024 0L84.936 0L85.218 56.25L85.5 112.5L88.305 117.272C91.969 123.505 97.267 126.966 104.248 127.686C110.951 128.378 115.965 126.848 120.743 122.653C128.171 116.131 127.953 118.143 127.978 55.75L128 0L132.866 0L137.733 0L138.202 45.25C138.653 88.81 138.749 90.653 140.776 94.595C149.184 110.942 170.586 110.942 179.301 94.595C181.313 90.82 181.487 89.055 181.525 72C181.548 61.825 181.664 41.463 181.783 26.75L182 0L187 0L192 0L192.022 34.25C192.047 72.761 192.153 73.415 199.454 79.826C204.196 83.989 206.862 85 213.097 85C222.331 85 228.629 80.968 232.623 72.5C234.954 67.557 234.981 67.117 234.99 33.75L235 0L240 0L245 0L245 34.318C245 72.582 244.65 75.241 238.573 83.201C228.758 96.055 210.073 99.506 196.59 90.955C194.027 89.33 191.721 88 191.465 88C191.209 88 191 89.311 191 90.913C191 92.515 189.531 96.663 187.735 100.132C179.069 116.872 157.938 122.184 142.295 111.554L138.538 109.002L137.455 113.751C135.239 123.464 129.162 131.126 120.572 135.036C113.696 138.165 108.744 138.92 101.479 137.947" />
    <glyph glyph-name="4x-swipe-up"
      unicode="&#xEA11;"
      horiz-adv-x="256" d=" M108.745 212.245C95.135 198.627 84 187.167 84 186.777C84 186.388 85.425 184.446 87.168 182.462L90.335 178.854L109.168 197.667L128 216.48L128 173.923L128 131.365L121.119 134.781C115.095 137.771 113.3 138.193 106.714 138.167C97.192 138.13 90.974 135.591 84.741 129.195C79.644 123.965 76.46 118.347 75.468 112.833L74.808 109.166L70.421 111.948C64.234 115.872 58.093 117.362 50.588 116.759C38.827 115.815 27.964 107.866 24.016 97.314C22.102 92.197 22 89.601 22 45.962L22 0L26.971 0L31.942 0L32.221 46.324L32.5 92.648L35.259 96.816C36.776 99.108 39.855 102.2 42.102 103.686C45.498 105.934 47.311 106.394 52.844 106.416C60.107 106.444 63.674 105.054 68.364 100.364C74.682 94.045 74.471 95.837 74.805 45.75L75.111 0L80.024 0L84.936 0L85.218 56.25L85.5 112.5L88.305 117.272C91.969 123.505 97.267 126.966 104.248 127.686C110.951 128.378 115.965 126.848 120.743 122.653C128.171 116.131 127.953 118.143 127.978 55.75L128 0L132.866 0L137.733 0L138.202 45.25C138.653 88.81 138.749 90.653 140.776 94.595C149.184 110.942 170.586 110.942 179.301 94.595C181.313 90.82 181.487 89.055 181.525 72C181.548 61.825 181.664 41.463 181.783 26.75L182 0L187 0L192 0L192.022 34.25C192.047 72.761 192.153 73.415 199.454 79.826C204.196 83.989 206.862 85 213.097 85C222.331 85 228.629 80.968 232.623 72.5C234.954 67.557 234.981 67.117 234.99 33.75L235 0L240 0L245 0L245 34.318C245 72.582 244.65 75.241 238.573 83.201C228.758 96.055 210.073 99.506 196.59 90.955C194.027 89.33 191.721 88 191.465 88C191.209 88 191 89.311 191 90.913C191 92.515 189.531 96.663 187.735 100.132C184.067 107.218 177.447 112.973 170.072 115.489C161.382 118.454 149.952 116.95 142.876 111.912C141.231 110.74 139.573 110.093 139.192 110.474C138.237 111.428 137.763 216 138.714 216C139.136 216 147.696 207.794 157.737 197.763L175.993 179.527L179.737 183.27L183.481 187.014L158.485 212.01L133.49 237.005L108.745 212.245" />
    <glyph glyph-name="a-add"
      unicode="&#xEA12;"
      horiz-adv-x="256" d=" M107.161 243.029C89.098 238.146 73.659 223.708 67.139 205.602C64.796 199.093 64.579 197.122 64.541 182C64.509 169.165 64.896 164.056 66.284 159C70.117 145.032 77.522 132.512 88.209 121.931L94.982 115.224L90.241 114.562C74.448 112.357 48.208 105.287 40.661 101.203C34.023 97.612 26.842 89.474 24.186 82.534C22.127 77.153 22 75.204 22 48.911L22 21L77.5 21L133 21L133 26.5L133 32L82.5 32L32 32L32.076 53.25C32.125 66.854 32.575 75.646 33.326 77.684C35.397 83.302 40.746 89.83 45.097 92.049C57.215 98.232 86.583 104.569 110 106.056C133.284 107.534 139.484 109.025 148.863 115.405C161.75 124.17 172.556 138.905 177.779 154.833C181.136 165.07 182.106 189.61 179.58 200.387C175.147 219.298 159.518 236.239 141.072 242.128C131.437 245.203 116.657 245.596 107.161 243.029M133.959 233.441C151.608 229.427 166.62 213.615 169.916 195.566C171.416 187.358 171.271 173.595 169.595 164.83C167.071 151.639 159.996 138.952 149.874 129.462C142.773 122.806 138.625 120.375 131.06 118.437C112.18 113.6 92.709 125.636 80.693 149.571C72.954 164.988 72.125 192.122 78.947 206.701C82.564 214.429 92.159 224.8 99.667 229.095C109.253 234.58 121.903 236.183 133.959 233.441M203 69L203 53L187 53L171 53L171 48L171 43L187 43L203 43L203 27L203 11L208 11L213 11L213 27L213 43L229 43L245 43L245 48L245 53L229 53L213 53L213 69L213 85L208 85L203 85L203 69" />
    <glyph glyph-name="a-check"
      unicode="&#xEA13;"
      horiz-adv-x="256" d=" M107.161 243.029C89.098 238.146 73.659 223.708 67.139 205.602C64.796 199.093 64.579 197.122 64.541 182C64.509 169.165 64.896 164.056 66.284 159C70.117 145.032 77.522 132.512 88.209 121.931L94.982 115.224L90.241 114.562C74.448 112.357 48.208 105.287 40.661 101.203C34.023 97.612 26.842 89.474 24.186 82.534C22.127 77.153 22 75.204 22 48.911L22 21L67 21L112 21L112 26.5L112 32L72 32L32 32L32.076 53.25C32.125 66.854 32.575 75.646 33.326 77.684C35.397 83.302 40.746 89.83 45.097 92.049C57.215 98.232 86.583 104.569 110 106.056C133.284 107.534 139.484 109.025 148.863 115.405C161.75 124.17 172.556 138.905 177.779 154.833C181.136 165.07 182.106 189.61 179.58 200.387C175.147 219.298 159.518 236.239 141.072 242.128C131.437 245.203 116.657 245.596 107.161 243.029M133.959 233.441C151.608 229.427 166.62 213.615 169.916 195.566C171.416 187.358 171.271 173.595 169.595 164.83C167.071 151.639 159.996 138.952 149.874 129.462C142.773 122.806 138.625 120.375 131.06 118.437C112.18 113.6 92.709 125.636 80.693 149.571C72.954 164.988 72.125 192.122 78.947 206.701C82.564 214.429 92.159 224.8 99.667 229.095C109.253 234.58 121.903 236.183 133.959 233.441M213.5 50C199.208 35.7 187.094 24 186.579 24C186.065 24 181.028 28.661 175.386 34.358L165.128 44.716L161.579 41.08L158.029 37.445L172.484 23.016L186.939 8.587L217.202 38.756L247.465 68.925L244.036 72.462C242.151 74.408 240.355 76 240.047 76C239.738 76 227.792 64.3 213.5 50" />
    <glyph glyph-name="a-delete"
      unicode="&#xEA14;"
      horiz-adv-x="256" d=" M107.161 243.029C89.098 238.146 73.659 223.708 67.139 205.602C64.796 199.093 64.579 197.122 64.541 182C64.509 169.165 64.896 164.056 66.284 159C70.117 145.032 77.522 132.512 88.209 121.931L94.982 115.224L90.241 114.562C74.448 112.357 48.208 105.287 40.661 101.203C34.023 97.612 26.842 89.474 24.186 82.534C22.127 77.153 22 75.204 22 48.911L22 21L77.5 21L133 21L133 26.5L133 32L82.5 32L32 32L32.076 53.25C32.125 66.854 32.575 75.646 33.326 77.684C35.397 83.302 40.746 89.83 45.097 92.049C57.215 98.232 86.583 104.569 110 106.056C133.284 107.534 139.484 109.025 148.863 115.405C161.75 124.17 172.556 138.905 177.779 154.833C181.136 165.07 182.106 189.61 179.58 200.387C175.147 219.298 159.518 236.239 141.072 242.128C131.437 245.203 116.657 245.596 107.161 243.029M133.959 233.441C151.608 229.427 166.62 213.615 169.916 195.566C171.416 187.358 171.271 173.595 169.595 164.83C167.071 151.639 159.996 138.952 149.874 129.462C142.773 122.806 138.625 120.375 131.06 118.437C112.18 113.6 92.709 125.636 80.693 149.571C72.954 164.988 72.125 192.122 78.947 206.701C82.564 214.429 92.159 224.8 99.667 229.095C109.253 234.58 121.903 236.183 133.959 233.441M171.979 83.479L168.566 79.957L184.521 63.979L200.477 48L184.502 32.002L168.528 16.005L172.267 12.267L176.005 8.528L192.002 24.502L208 40.477L223.998 24.502L239.995 8.528L243.733 12.267L247.472 16.005L231.498 32.002L215.523 48L231.498 63.998L247.472 79.995L243.733 83.733L239.995 87.472L223.998 71.498L208 55.523L192.239 71.262C183.57 79.918 176.233 87 175.935 87C175.636 87 173.856 85.415 171.979 83.479" />
    <glyph glyph-name="a-edit"
      unicode="&#xEA15;"
      horiz-adv-x="256" d=" M100.5 244.044C78.582 239.282 60.831 222.701 55.492 202C54.143 196.772 53.891 192.076 54.204 178C54.586 160.842 54.661 160.323 58.077 151.465C62.543 139.883 69.159 129.979 78.009 121.631C83.583 116.372 84.594 115 82.894 115C74.796 115 39.501 105.902 30.358 101.458C23.965 98.351 17.644 91.606 14.16 84.175C11.5 78.501 11.5 78.495 11.194 49.75L10.887 21L55.944 21L101 21L101 26.5L101 32L61 32L21 32L21 51.818C21 75.488 21.839 79.38 28.552 86.847C33.819 92.704 37.839 94.463 57.536 99.521C73.25 103.556 87.464 105.649 107.5 106.877C128.82 108.185 136.727 111.607 149.352 124.99C157.178 133.286 162.943 142.784 166.657 153.5C169.157 160.712 169.467 163.125 169.811 178C170.052 188.395 169.756 196.535 169.01 200C167.001 209.346 161.214 219.795 154.009 227.088C142.516 238.721 130.623 243.978 114.5 244.555C109 244.752 102.7 244.522 100.5 244.044M122.907 233.46C140.007 229.429 154.036 215.703 158.639 198.5C160.476 191.631 160.374 170.212 158.465 162.114C155.574 149.85 145.609 134.053 135.796 126.179C127.958 119.889 121.599 117.595 112 117.595C102.401 117.595 96.042 119.889 88.204 126.179C78.391 134.053 68.426 149.85 65.535 162.114C63.626 170.212 63.524 191.631 65.361 198.5C68.875 211.633 78.629 223.737 90.355 229.516C101.542 235.028 111.26 236.206 122.907 233.46M173.245 73.745L139 39.489L139 19.745L139 0L158.755 0L178.511 0L212.998 34.498L247.485 68.996L228.002 88.498C217.287 99.224 208.287 108 208.004 108C207.721 108 192.079 92.585 173.245 73.745M220.505 80.995L232.478 68.991L203.495 39.995L174.513 11L161.756 11L149 11L149 22.744L149 34.487L178.244 63.744C194.328 79.835 207.722 93 208.009 93C208.296 93 213.919 87.598 220.505 80.995" />
    <glyph glyph-name="a-heart"
      unicode="&#xEA16;"
      horiz-adv-x="256" d=" M107.161 243.029C89.098 238.146 73.659 223.708 67.139 205.602C64.796 199.093 64.579 197.122 64.541 182C64.509 169.165 64.896 164.056 66.284 159C70.117 145.032 77.522 132.512 88.209 121.931L94.982 115.224L90.241 114.562C74.448 112.357 48.208 105.287 40.661 101.203C34.023 97.612 26.842 89.474 24.186 82.534C22.127 77.153 22 75.204 22 48.911L22 21L77.5 21L133 21L133 26.5L133 32L82.5 32L32 32L32.076 53.25C32.125 66.854 32.575 75.646 33.326 77.684C35.397 83.302 40.746 89.83 45.097 92.049C57.215 98.232 86.583 104.569 110 106.056C133.284 107.534 139.484 109.025 148.863 115.405C161.75 124.17 172.556 138.905 177.779 154.833C181.136 165.07 182.106 189.61 179.58 200.387C175.147 219.298 159.518 236.239 141.072 242.128C131.437 245.203 116.657 245.596 107.161 243.029M133.959 233.441C151.608 229.427 166.62 213.615 169.916 195.566C171.416 187.358 171.271 173.595 169.595 164.83C167.071 151.639 159.996 138.952 149.874 129.462C142.773 122.806 138.625 120.375 131.06 118.437C112.18 113.6 92.709 125.636 80.693 149.571C72.954 164.988 72.125 192.122 78.947 206.701C82.564 214.429 92.159 224.8 99.667 229.095C109.253 234.58 121.903 236.183 133.959 233.441M179.409 94.235C163.265 88.462 155.71 70.378 163.175 55.378C164.4 52.916 173.84 42.65 186.613 29.887L208 8.517L229.387 29.887C253.711 54.191 255.395 56.624 255.433 67.5C255.472 78.94 249.373 88.54 239 93.364C231.81 96.708 221.824 96.274 214.083 92.282L208 89.145L202.25 92.083C194.672 95.956 186.398 96.735 179.409 94.235M197.768 83C199.565 81.904 202.464 78.981 204.21 76.504C205.956 74.027 207.662 72 208 72C208.338 72 210.044 74.027 211.79 76.504C216.143 82.68 220.242 84.992 226.849 84.996C237.468 85.004 244.075 79.116 244.807 68.991C245.41 60.651 243.459 57.839 224.394 39.564L208 23.85L191.928 39.175C183.089 47.604 174.711 56.43 173.311 58.788C168.298 67.233 171.621 79.101 180.18 83.318C184.898 85.643 193.694 85.484 197.768 83" />
    <glyph glyph-name="a-location"
      unicode="&#xEA17;"
      horiz-adv-x="256" d=" M100.5 244.044C78.582 239.282 60.831 222.701 55.492 202C54.143 196.772 53.891 192.076 54.204 178C54.586 160.842 54.661 160.323 58.077 151.465C62.543 139.883 69.159 129.979 78.009 121.631C83.583 116.372 84.594 115 82.894 115C74.796 115 39.501 105.902 30.358 101.458C23.965 98.351 17.644 91.606 14.16 84.175C11.5 78.501 11.5 78.495 11.194 49.75L10.887 21L55.944 21L101 21L101 26.5L101 32L61 32L21 32L21 51.818C21 75.488 21.839 79.38 28.552 86.847C33.819 92.704 37.839 94.463 57.536 99.521C73.25 103.556 87.464 105.649 107.5 106.877C128.82 108.185 136.727 111.607 149.352 124.99C157.178 133.286 162.943 142.784 166.657 153.5C169.157 160.712 169.467 163.125 169.811 178C170.052 188.395 169.756 196.535 169.01 200C167.001 209.346 161.214 219.795 154.009 227.088C142.516 238.721 130.623 243.978 114.5 244.555C109 244.752 102.7 244.522 100.5 244.044M122.907 233.46C140.007 229.429 154.036 215.703 158.639 198.5C160.476 191.631 160.374 170.212 158.465 162.114C155.574 149.85 145.609 134.053 135.796 126.179C127.958 119.889 121.599 117.595 112 117.595C102.401 117.595 96.042 119.889 88.204 126.179C78.391 134.053 68.426 149.85 65.535 162.114C63.626 170.212 63.524 191.631 65.361 198.5C68.875 211.633 78.629 223.737 90.355 229.516C101.542 235.028 111.26 236.206 122.907 233.46M199.182 126.881C185.142 124.546 170.952 114.667 165.067 103.131C162.63 98.355 160.036 87.996 160.015 82.96C159.977 73.987 164.902 61.756 174.048 48.103C179.947 39.297 196.445 19.662 203.963 12.5L208.161 8.5L216.43 17.136C233.987 35.475 248.098 55.294 252.9 68.359C257.247 80.187 256.311 93.145 250.314 104.165C244.411 115.01 229.693 124.786 216 126.955C208.606 128.127 206.614 128.118 199.182 126.881M225.212 113.219C232.345 109.705 239.337 102.901 242.611 96.289C244.048 93.389 244.49 90.27 244.494 83C244.5 73.907 244.33 73.166 240.541 65.703C235.969 56.698 224.115 40.617 214.59 30.5L208 23.5L201.41 30.5C191.883 40.62 179.98 56.765 175.436 65.734C171.676 73.153 171.5 73.925 171.5 83C171.5 93.819 172.663 97.063 179.201 104.491C187.168 113.542 195.824 117.1 209.027 116.751C217.497 116.528 219.293 116.136 225.212 113.219M200.923 87.077C198.631 84.784 198 83.258 198 80C198 76.742 198.631 75.216 200.923 72.923C207.365 66.482 218 70.889 218 80C218 83.258 217.369 84.784 215.077 87.077C212.784 89.369 211.258 90 208 90C204.742 90 203.216 89.369 200.923 87.077" />
    <glyph glyph-name="a-remove"
      unicode="&#xEA19;"
      horiz-adv-x="256" d=" M107.161 243.029C89.098 238.146 73.659 223.708 67.139 205.602C64.796 199.093 64.579 197.122 64.541 182C64.509 169.165 64.896 164.056 66.284 159C70.117 145.032 77.522 132.512 88.209 121.931L94.982 115.224L90.241 114.562C74.448 112.357 48.208 105.287 40.661 101.203C34.023 97.612 26.842 89.474 24.186 82.534C22.127 77.153 22 75.204 22 48.911L22 21L77.5 21L133 21L133 26.5L133 32L82.5 32L32 32L32.076 53.25C32.125 66.854 32.575 75.646 33.326 77.684C35.397 83.302 40.746 89.83 45.097 92.049C57.215 98.232 86.583 104.569 110 106.056C133.284 107.534 139.484 109.025 148.863 115.405C161.75 124.17 172.556 138.905 177.779 154.833C181.136 165.07 182.106 189.61 179.58 200.387C175.147 219.298 159.518 236.239 141.072 242.128C131.437 245.203 116.657 245.596 107.161 243.029M133.959 233.441C151.608 229.427 166.62 213.615 169.916 195.566C171.416 187.358 171.271 173.595 169.595 164.83C167.071 151.639 159.996 138.952 149.874 129.462C142.773 122.806 138.625 120.375 131.06 118.437C112.18 113.6 92.709 125.636 80.693 149.571C72.954 164.988 72.125 192.122 78.947 206.701C82.564 214.429 92.159 224.8 99.667 229.095C109.253 234.58 121.903 236.183 133.959 233.441M171 48L171 43L208 43L245 43L245 48L245 53L208 53L171 53L171 48" />
    <glyph glyph-name="a-search"
      unicode="&#xEA18;"
      horiz-adv-x="256" d=" M107.161 243.029C89.098 238.146 73.659 223.708 67.139 205.602C64.796 199.093 64.579 197.122 64.541 182C64.509 169.165 64.896 164.056 66.284 159C70.117 145.032 77.522 132.512 88.209 121.931L94.982 115.224L90.241 114.562C74.448 112.357 48.208 105.287 40.661 101.203C34.023 97.612 26.842 89.474 24.186 82.534C22.127 77.153 22 75.204 22 48.911L22 21L77.5 21L133 21L133 26.5L133 32L82.5 32L32 32L32.076 53.25C32.125 66.854 32.575 75.646 33.326 77.684C35.397 83.302 40.746 89.83 45.097 92.049C57.215 98.232 86.583 104.569 110 106.056C133.284 107.534 139.484 109.025 148.863 115.405C161.75 124.17 172.556 138.905 177.779 154.833C181.136 165.07 182.106 189.61 179.58 200.387C175.147 219.298 159.518 236.239 141.072 242.128C131.437 245.203 116.657 245.596 107.161 243.029M133.959 233.441C151.608 229.427 166.62 213.615 169.916 195.566C171.416 187.358 171.271 173.595 169.595 164.83C167.071 151.639 159.996 138.952 149.874 129.462C142.773 122.806 138.625 120.375 131.06 118.437C112.18 113.6 92.709 125.636 80.693 149.571C72.954 164.988 72.125 192.122 78.947 206.701C82.564 214.429 92.159 224.8 99.667 229.095C109.253 234.58 121.903 236.183 133.959 233.441M188.5 94.591C181.256 92.796 176.128 89.815 170.853 84.331C146.355 58.861 167.512 17.653 202.793 22.122C205.704 22.49 210.654 24.094 213.793 25.686L219.5 28.581L233.248 15.055L246.997 1.53L250.733 5.267L254.47 9.003L240.945 22.752L227.419 36.5L230.314 42.207C241.346 63.962 228.199 90.411 204.079 94.985C197.48 96.237 194.875 96.171 188.5 94.591M206.169 83.97C211.546 82.476 219.306 75.04 221.983 68.817C225.142 61.475 224.485 51.936 220.361 45.266C210.442 29.223 189.623 27.397 177.224 41.483C172.406 46.957 171.004 51.032 171.028 59.5C171.047 66.771 173.35 72.284 178.533 77.467C180.604 79.537 184.143 82.069 186.399 83.094C190.989 85.178 200.328 85.592 206.169 83.97" />
    <glyph glyph-name="a-security"
      unicode="&#xEA1A;"
      horiz-adv-x="256" d=" M107.161 243.029C89.098 238.146 73.659 223.708 67.139 205.602C64.796 199.093 64.579 197.122 64.541 182C64.509 169.165 64.896 164.056 66.284 159C70.117 145.032 77.522 132.512 88.209 121.931L94.982 115.224L90.241 114.562C74.448 112.357 48.208 105.287 40.661 101.203C34.023 97.612 26.842 89.474 24.186 82.534C22.127 77.153 22 75.204 22 48.911L22 21L67 21L112 21L112 26.5L112 32L72 32L32 32L32.076 53.25C32.125 66.854 32.575 75.646 33.326 77.684C35.397 83.302 40.746 89.83 45.097 92.049C57.215 98.232 86.583 104.569 110 106.056C133.284 107.534 139.484 109.025 148.863 115.405C161.75 124.17 172.556 138.905 177.779 154.833C181.136 165.07 182.106 189.61 179.58 200.387C175.147 219.298 159.518 236.239 141.072 242.128C131.437 245.203 116.657 245.596 107.161 243.029M133.959 233.441C151.608 229.427 166.62 213.615 169.916 195.566C171.416 187.358 171.271 173.595 169.595 164.83C167.071 151.639 159.996 138.952 149.874 129.462C142.773 122.806 138.625 120.375 131.06 118.437C112.18 113.6 92.709 125.636 80.693 149.571C72.954 164.988 72.125 192.122 78.947 206.701C82.564 214.429 92.159 224.8 99.667 229.095C109.253 234.58 121.903 236.183 133.959 233.441M199.5 115.845C192.904 113.426 186.975 107.831 183.768 101C181.968 97.168 181.587 94.089 181.198 80.25L180.74 64L170.37 64L160 64L160 32L160 0L208 0L256 0L256 32L256 64L245.63 64L235.26 64L234.802 80.25C234.421 93.805 234.007 97.246 232.308 101C229.905 106.31 224.259 112.16 219.15 114.635C214.827 116.73 203.767 117.41 199.5 115.845M214.599 105.095C216.853 104.071 219.778 101.718 221.099 99.867C223.358 96.699 223.519 95.541 223.817 80.25L224.135 64L208 64L191.865 64L192.183 80.25C192.481 95.541 192.642 96.699 194.901 99.867C197.471 103.47 203.912 106.956 208 106.956C209.375 106.956 212.345 106.118 214.599 105.095M246 32L246 11L208 11L170 11L170 32L170 53L208 53L246 53L246 32" />
    <glyph glyph-name="a-share"
      unicode="&#xEA1B;"
      horiz-adv-x="256" d=" M107.161 243.029C89.098 238.146 73.659 223.708 67.139 205.602C64.796 199.093 64.579 197.122 64.541 182C64.509 169.165 64.896 164.056 66.284 159C70.117 145.032 77.522 132.512 88.209 121.931L94.982 115.224L90.241 114.562C74.448 112.357 48.208 105.287 40.661 101.203C34.023 97.612 26.842 89.474 24.186 82.534C22.127 77.153 22 75.204 22 48.911L22 21L72 21L122 21L122 26.5L122 32L77 32L32 32L32.076 53.25C32.125 66.854 32.575 75.646 33.326 77.684C35.397 83.302 40.746 89.83 45.097 92.049C57.215 98.232 86.583 104.569 110 106.056C133.284 107.534 139.484 109.025 148.863 115.405C161.75 124.17 172.556 138.905 177.779 154.833C181.136 165.07 182.106 189.61 179.58 200.387C175.147 219.298 159.518 236.239 141.072 242.128C131.437 245.203 116.657 245.596 107.161 243.029M133.959 233.441C151.608 229.427 166.62 213.615 169.916 195.566C171.416 187.358 171.271 173.595 169.595 164.83C167.071 151.639 159.996 138.952 149.874 129.462C142.773 122.806 138.625 120.375 131.06 118.437C112.18 113.6 92.709 125.636 80.693 149.571C72.954 164.988 72.125 192.122 78.947 206.701C82.564 214.429 92.159 224.8 99.667 229.095C109.253 234.58 121.903 236.183 133.959 233.441M222.5 94.032C217.144 91.248 214.621 87.525 214.008 81.5L213.5 76.5L200.124 68.389L186.747 60.279L182.017 62.277C174.005 65.662 165.468 62.449 161.964 54.729C159.548 49.407 159.548 46.593 161.964 41.271C165.468 33.551 174.005 30.338 182.017 33.723L186.747 35.721L200.124 27.611L213.5 19.5L214.008 14.5C214.635 8.335 217.192 4.676 222.819 1.892C230.006 -1.664 237.182 0.345 242.438 7.385C245.329 11.257 245.329 20.743 242.438 24.615C237.267 31.541 229.526 33.71 222.696 30.145L218.892 28.16L205.446 36.214C192.025 44.253 192 44.275 192 48C192 51.725 192.025 51.747 205.446 59.786L218.892 67.84L222.696 65.855C229.526 62.29 237.267 64.459 242.438 71.385C245.329 75.257 245.329 84.743 242.438 88.615C237.21 95.618 229.554 97.698 222.5 94.032" />
    <glyph glyph-name="a-star"
      unicode="&#xEA1C;"
      horiz-adv-x="256" d=" M115 233.89C97.898 231.924 82.951 222.247 72.807 206.572C67 197.599 64.905 189.716 64.286 174.5C63.214 148.17 69.462 131.002 86.591 113.216C91.041 108.596 94.191 104.693 93.591 104.543C92.991 104.394 88 103.56 82.5 102.691C69.504 100.636 46.683 94.041 40.02 90.414C33.832 87.046 28.961 81.656 25.216 74.03L22.5 68.5L22.207 39.75L21.913 11L77.457 11L133 11L133 16L133 21L82.5 21L32 21L32 41.822C32 66.524 32.757 69.852 40.028 77.123C44.058 81.153 46.121 82.266 54.611 84.99C74.85 91.484 100.978 96 118.314 96C139.178 96 155.073 104.964 168.021 124.032C177.399 137.841 180.964 150.635 180.968 170.5C180.972 192.412 176.451 204.589 163.516 217.505C150.333 230.668 134.241 236.103 115 233.89M133.201 222.885C141.455 221.149 148.608 217.299 155.427 210.919C166.403 200.652 170.973 188.767 170.968 170.5C170.964 157.157 168.983 148.403 163.414 137.12C158.008 126.169 148.078 115.35 139 110.522C131.927 106.76 119.134 105.798 111.205 108.432C97.259 113.064 82.761 130.036 76.977 148.5C73.905 158.305 73.765 181.475 76.722 190.604C84.375 214.232 108.577 228.065 133.201 222.885M199.677 94.649L191.853 78.297L175.677 76.074C166.779 74.851 158.655 73.611 157.622 73.317C156.102 72.886 158.187 70.336 168.576 59.924L181.407 47.064L178.353 28.999C176.673 19.063 175.581 11.061 175.926 11.217C176.271 11.372 183.629 15.234 192.277 19.797L208 28.094L223.723 19.797C232.371 15.234 239.729 11.372 240.074 11.217C240.419 11.061 239.327 19.062 237.647 28.996L234.594 47.06L245.297 57.796C253.429 65.954 256 69.16 256 71.145C256 74.015 257.141 73.722 232.834 77.082L224.168 78.28L216.334 94.627C212.025 103.619 208.275 110.981 208 110.988C207.725 110.994 203.979 103.642 199.677 94.649" />
    <glyph glyph-name="a-sync"
      unicode="&#xEA1E;"
      horiz-adv-x="256" d=" M107.161 243.029C89.098 238.146 73.659 223.708 67.139 205.602C64.796 199.093 64.579 197.122 64.541 182C64.509 169.165 64.896 164.056 66.284 159C70.117 145.032 77.522 132.512 88.209 121.931L94.982 115.224L90.241 114.562C74.448 112.357 48.208 105.287 40.661 101.203C34.023 97.612 26.842 89.474 24.186 82.534C22.127 77.153 22 75.204 22 48.911L22 21L72 21L122 21L122 26.5L122 32L77 32L32 32L32.076 53.25C32.125 66.854 32.575 75.646 33.326 77.684C35.397 83.302 40.746 89.83 45.097 92.049C57.215 98.232 86.583 104.569 110 106.056C133.284 107.534 139.484 109.025 148.863 115.405C161.75 124.17 172.556 138.905 177.779 154.833C181.136 165.07 182.106 189.61 179.58 200.387C175.147 219.298 159.518 236.239 141.072 242.128C131.437 245.203 116.657 245.596 107.161 243.029M133.959 233.441C151.608 229.427 166.62 213.615 169.916 195.566C171.416 187.358 171.271 173.595 169.595 164.83C167.071 151.639 159.996 138.952 149.874 129.462C142.773 122.806 138.625 120.375 131.06 118.437C112.18 113.6 92.709 125.636 80.693 149.571C72.954 164.988 72.125 192.122 78.947 206.701C82.564 214.429 92.159 224.8 99.667 229.095C109.253 234.58 121.903 236.183 133.959 233.441M190.5 105.768C176.295 104.21 161.308 93.602 155.088 80.703C150.605 71.406 150.661 70.889 156.315 69.423C160.6 68.311 161.191 68.357 161.685 69.837C164.913 79.496 172.159 87.76 181.554 92.499C186.918 95.204 188.433 95.498 197.021 95.499C205.717 95.5 207.107 95.222 213.056 92.293C220.869 88.447 225.288 84.312 222.994 82.994C222.172 82.522 217.482 79.197 212.571 75.605C206.925 71.476 204.167 68.89 205.071 68.572C208.714 67.291 247.534 59.201 247.966 59.633C248.546 60.213 252.873 103.33 252.405 103.875C252.228 104.081 248.006 101.269 243.023 97.625C238.04 93.981 233.591 91 233.136 91C232.682 91 231.49 91.906 230.487 93.014C227.687 96.109 218.548 101.894 213.779 103.591C207.57 105.801 198.514 106.648 190.5 105.768M144.141 25.375C142.933 12.916 142.069 2.604 142.222 2.459C142.375 2.313 146.705 5.272 151.844 9.032L161.188 15.87L166.83 11.274C182.146 -1.201 202.049 -3.158 220.074 6.038C227.103 9.623 235.603 18.484 239.513 26.299C241.431 30.132 243 33.839 243 34.537C243 35.83 237.994 38.014 235.101 37.983C234.12 37.972 232.561 35.798 231.075 32.366C228.07 25.427 220.679 17.972 213.129 14.264C208.066 11.778 206.443 11.5 197 11.5C187.4 11.5 186.029 11.745 181 14.357C177.975 15.929 174.28 18.359 172.788 19.758L170.076 22.301L180.69 30.094C190.106 37.007 191.032 37.95 188.902 38.457C187.581 38.771 178.175 40.834 168 43.043C157.825 45.251 148.789 47.276 147.919 47.542C146.553 47.961 146.04 44.952 144.141 25.375" />
    <glyph glyph-name="a-time"
      unicode="&#xEA1D;"
      horiz-adv-x="256" d=" M100.5 244.044C78.582 239.282 60.831 222.701 55.492 202C54.143 196.772 53.891 192.076 54.204 178C54.586 160.842 54.661 160.323 58.077 151.465C62.543 139.883 69.159 129.979 78.009 121.631C83.583 116.372 84.594 115 82.894 115C74.796 115 39.501 105.902 30.358 101.458C23.965 98.351 17.644 91.606 14.16 84.175C11.5 78.501 11.5 78.495 11.194 49.75L10.887 21L55.944 21L101 21L101 26.5L101 32L61 32L21 32L21 51.818C21 75.488 21.839 79.38 28.552 86.847C33.819 92.704 37.839 94.463 57.536 99.521C73.25 103.556 87.464 105.649 107.5 106.877C128.82 108.185 136.727 111.607 149.352 124.99C157.178 133.286 162.943 142.784 166.657 153.5C169.157 160.712 169.467 163.125 169.811 178C170.052 188.395 169.756 196.535 169.01 200C167.001 209.346 161.214 219.795 154.009 227.088C142.516 238.721 130.623 243.978 114.5 244.555C109 244.752 102.7 244.522 100.5 244.044M122.907 233.46C140.007 229.429 154.036 215.703 158.639 198.5C160.476 191.631 160.374 170.212 158.465 162.114C155.574 149.85 145.609 134.053 135.796 126.179C127.958 119.889 121.599 117.595 112 117.595C102.401 117.595 96.042 119.889 88.204 126.179C78.391 134.053 68.426 149.85 65.535 162.114C63.626 170.212 63.524 191.631 65.361 198.5C68.875 211.633 78.629 223.737 90.355 229.516C101.542 235.028 111.26 236.206 122.907 233.46M182.347 115.015C150.914 106.775 132.814 75.506 140.985 43.557C143.633 33.205 147.915 25.959 156.435 17.412C167.151 6.662 182.59 0.071 197.185 0.017C211.605 -0.036 227.63 6.638 238.095 17.056C250.252 29.158 255.42 41.692 255.39 59C255.369 70.594 254.336 75.271 249.651 84.974C245.805 92.938 234.059 105.213 225.853 109.843C213.767 116.662 196.472 118.718 182.347 115.015M208.308 105.523C212.053 104.729 217.477 102.729 220.363 101.078C228.009 96.704 237.433 86.43 241.247 78.312C244.044 72.36 244.496 70.223 244.832 61.38C245.418 45.971 241.961 36.218 232.222 25.806C222.694 15.62 211.86 11 197.5 11C180.368 11 166.844 18.186 157.036 32.5C142.181 54.179 149.533 86.152 172.552 99.974C183.237 106.39 195.345 108.269 208.308 105.523M192 69L192 53L208 53L224 53L224 58.5L224 64L213.5 64L203 64L203 74.5L203 85L197.5 85L192 85L192 69" />
    <glyph glyph-name="abc"
      unicode="&#xEA1F;"
      horiz-adv-x="256" d=" M118 229.688L118 224.138L133.93 223.819C148.171 223.534 150.153 223.281 152.619 221.438C157.372 217.884 159.301 214.414 159.788 208.541L160.248 203L145.374 202.98C120.627 202.946 112.826 200.875 104.844 192.215C94.759 181.274 93.48 165.679 101.656 153.34C105.714 147.215 110.446 143.398 117.129 140.859C121.416 139.23 125.064 139 146.626 139L171.23 139L170.815 176.25C170.425 211.194 170.272 213.782 168.344 218.051C165.353 224.673 160.737 229.43 154.757 232.054C150.194 234.056 147.42 234.419 133.75 234.8L118 235.239L118 229.688M160 170.5L160 149L143.443 149C134.336 149 124.941 149.49 122.564 150.088C113.393 152.397 107 160.739 107 170.395C107 177.2 108.232 180.558 112.311 184.872C118.325 191.232 121.316 191.953 141.75 191.978L160 192L160 170.5M32 74.949L32 10.897L55.25 11.199L78.5 11.5L84.782 14.401C92.844 18.124 100.989 26.681 103.915 34.503C106.765 42.12 106.765 53.88 103.915 61.497C100.989 69.319 92.844 77.876 84.782 81.599C78.768 84.376 77.731 84.521 60.5 85L42.5 85.5L42.234 112.25L41.967 139L36.984 139L32 139L32 74.949M190.139 94.895C182.188 92.507 175.156 85.899 172.427 78.252C171.471 75.573 171.078 68.351 171.054 53C171.021 32.534 171.132 31.26 173.353 26.5C176.176 20.449 182.102 14.89 188.217 12.555C192.012 11.106 195.459 10.883 209.62 11.173C228.403 11.557 231.349 12.399 237.57 19.162C240.456 22.3 244 27.38 244 28.379C244 28.627 242.039 29.925 239.643 31.264L235.286 33.699L232.893 29.791C228.502 22.619 225.521 21.545 209 21.18C195.332 20.878 194.245 20.996 190.053 23.233C186.969 24.878 184.883 26.969 183.25 30.053C180.967 34.364 180.905 35.118 181.198 54.68C181.534 77.122 181.726 77.807 189.083 82.813C192.356 85.04 193.109 85.114 209.315 84.813L226.148 84.5L229.824 80.443C231.846 78.212 233.95 75.622 234.5 74.688C235.417 73.131 235.854 73.202 239.747 75.55C243.94 78.077 243.976 78.146 242.534 80.935C239.921 85.987 235.842 90.044 230.62 92.786C225.751 95.341 224.717 95.484 209.5 95.688C200.7 95.807 191.988 95.45 190.139 94.895M80.089 72.368C90.323 67.655 95.5 59.469 95.5 48C95.5 39.401 93.869 35.231 88.239 29.435C81.713 22.715 77.678 21.565 59.25 21.173L43 20.828L43 48L43 75.172L59.25 74.827C73.212 74.53 76.146 74.184 80.089 72.368" />
    <glyph glyph-name="accessibility"
      unicode="&#xEA21;"
      horiz-adv-x="256" d=" M122.5 242.71C112.106 237.728 106.338 227.833 107.245 216.538C108.381 202.388 119.032 192.461 133 192.534C148.356 192.615 159.289 203.355 159.433 218.5C159.504 225.896 157.339 231.756 152.657 236.845C145.524 244.599 131.949 247.239 122.5 242.71M141.864 232.268C148.939 227.029 151.237 217.182 147.005 210.241C139.281 197.571 118.904 202.302 117.312 217.136C115.94 229.907 131.829 239.699 141.864 232.268M22 165.5L22 160L59 160L96 160L96 80L96 0L101 0L106 0L106 32L106 64L133 64L160 64L160 32L160 0L165 0L170 0L170.103 32.25C170.16 49.988 170.119 85.988 170.011 112.25L169.815 160L207.407 160L245 160L245 165.5L245 171L133.5 171L22 171L22 165.5M160 117.5L160 75L133 75L106 75L106 117.5L106 160L133 160L160 160L160 117.5" />
    <glyph glyph-name="action-73"
      unicode="&#xEA20;"
      horiz-adv-x="256" d=" M118 222.26C59.975 210.403 12.372 200.604 12.215 200.483C11.779 200.147 13.741 191.925 14.419 191.247C14.747 190.919 63.05 200.409 121.758 212.337C180.466 224.264 228.873 234.017 229.329 234.011C230.08 234.001 229.647 237.671 228.358 242.25C228.069 243.275 226.961 243.962 225.683 243.908C224.482 243.858 176.025 234.116 118 222.26M22 80L22 0L133.5 0L245 0L245 80L245 160L133.5 160L22 160L22 80M235 80L235 11L133.5 11L32 11L32 80L32 149L133.5 149L235 149L235 80M86 112L86 107L133.5 107L181 107L181 112L181 117L133.5 117L86 117L86 112M86 69.5L86 64L107 64L128 64L128 53.5L128 43L133 43L138 43L138 53.5L138 64L159.5 64L181 64L181 69.5L181 75L133.5 75L86 75L86 69.5" />
    <glyph glyph-name="action-74"
      unicode="&#xEA22;"
      horiz-adv-x="256" d=" M118 222.26C59.975 210.403 12.372 200.604 12.215 200.483C11.779 200.147 13.741 191.925 14.419 191.247C14.747 190.919 63.05 200.409 121.758 212.337C180.466 224.264 228.873 234.017 229.329 234.011C230.08 234.001 229.647 237.671 228.358 242.25C228.069 243.275 226.961 243.962 225.683 243.908C224.482 243.858 176.025 234.116 118 222.26M22 80L22 0L133.5 0L245 0L245 80L245 160L133.5 160L22 160L22 80M235 80L235 11L133.5 11L32 11L32 80L32 149L133.5 149L235 149L235 80M107 80.042L107 38.887L110.837 41.193C112.948 42.462 128.234 51.6 144.808 61.5C161.381 71.4 174.946 79.725 174.951 80C174.956 80.275 161.132 88.713 144.23 98.752C127.329 108.79 112.037 117.947 110.25 119.1L107 121.196L107 80.042M137.309 91C147.011 85.225 154.95 80.275 154.95 80C154.95 79.366 120.128 58.612 118.334 58.177C117.252 57.915 117 62.045 117 80C117 97.955 117.252 102.085 118.334 101.823C119.068 101.645 127.606 96.775 137.309 91" />
    <glyph glyph-name="active-38"
      unicode="&#xEA24;"
      horiz-adv-x="256" d=" M113.748 243.634C105.434 240.532 98.964 233.301 97.074 225C96.431 222.18 96.04 195.963 96.024 154.784L96 89.068L79.25 99.174C57.889 112.062 55.894 112.956 48.5 112.956C33.863 112.956 23.002 102.101 23.032 87.5C23.054 76.751 23.769 75.84 63.283 36.25L99.463 0L166.732 0C209.975 0 234 0.35 234 0.98C234 1.518 237.854 26.831 242.564 57.23C247.274 87.628 251.154 115.65 251.185 119.5C251.278 130.986 246.013 141.476 236.484 148.792C230.581 153.323 227.97 154.067 188.246 162.531C168.585 166.72 151.713 170.37 150.75 170.641C149.143 171.095 149 173.192 149 196.386C149 224.479 148.337 228.744 142.955 235.251C138.061 241.169 131.981 244.214 124.175 244.656C120.007 244.893 116.091 244.509 113.748 243.634M128.282 233.623C132.388 231.866 136.411 227.449 137.864 223.101C138.606 220.881 139.001 209.781 139.004 191.101L139.007 162.5L178.754 154.084C200.614 149.454 220.914 144.79 223.865 143.719C233.822 140.103 241 130.097 241 119.835C241 115.96 228.314 30.236 225.375 14.25L224.777 11L163.605 11L102.433 11L69.335 44.25C51.132 62.537 35.46 79.037 34.508 80.916C29.918 89.975 36.654 101.53 47.22 102.721C52.655 103.334 51.911 103.703 82.22 85.391L105.94 71.06L106.22 146.78C106.472 215.031 106.663 222.796 108.155 225.5C112.649 233.647 120.665 236.882 128.282 233.623" />
    <glyph glyph-name="active-40"
      unicode="&#xEA23;"
      horiz-adv-x="256" d=" M81.748 243.634C73.434 240.532 66.964 233.301 65.074 225C64.467 222.337 64.039 203.926 64.024 179.892L64 139.283L53.241 138.773C36.778 137.993 28.929 133.658 23.89 122.565C22.261 118.979 22.041 115.67 22.022 94.46C21.989 58.072 23.518 54.045 49.752 21.425L66.58 0.5L139.522 0.5L212.464 0.5L221.259 57C231.258 121.236 231.407 123.668 226.029 134.592C222.788 141.177 216.334 147.773 210 150.974C204.875 153.564 197.619 155.115 155.251 162.675L117.003 169.5L117.001 195.568C117 224.546 116.365 228.709 110.955 235.251C106.061 241.169 99.981 244.214 92.175 244.656C88.007 244.893 84.091 244.509 81.748 243.634M96.282 233.623C100.388 231.866 104.411 227.449 105.864 223.101C106.609 220.872 107 209.62 107 190.43L107 161.159L109.75 160.603C111.263 160.297 132.3 156.415 156.5 151.977C184.281 146.881 202.062 143.155 204.739 141.869C210.783 138.965 216.702 131.832 218.665 125.087L220.291 119.5L211.96 65.25L203.629 11L137.564 11.002L71.5 11.005L56.617 29.752C39.34 51.514 36.711 55.806 33.935 66.783C32.127 73.937 31.924 77.374 32.194 96.368C32.477 116.25 32.654 118.066 34.562 120.618C39.037 126.605 41.261 127.473 53.07 127.838L64 128.177L64 112.088L64 96L69 96L74 96L74.083 112.25C74.128 121.187 74.241 149.65 74.333 175.5C74.481 217.156 74.688 222.841 76.155 225.5C80.649 233.647 88.665 236.882 96.282 233.623" />
    <glyph glyph-name="add-27"
      unicode="&#xEA25;"
      horiz-adv-x="256" d=" M153.265 243.522C141.204 240.127 131.706 233.167 124.955 222.779C118.755 213.237 117.786 207.665 118.211 184C118.546 165.317 118.785 162.995 120.908 157.804C125.793 145.856 138.726 133.955 150.791 130.305C159.241 127.749 172.779 127.966 181 130.789C192.261 134.655 203.665 144.855 208.628 155.5C212.485 163.772 213.214 169.798 212.784 189.852C212.431 206.36 212.122 209.168 210.093 214.324C205.156 226.87 192.688 238.857 180.737 242.548C173.266 244.855 159.707 245.336 153.265 243.522M173.201 233.877C180.701 232.287 185.578 229.555 191.474 223.641C197.309 217.788 200.518 211.816 201.985 204.079C203.343 196.918 203.276 175.401 201.876 168.799C199.461 157.418 192.13 147.729 181.838 142.315C176.928 139.732 175.617 139.507 165.5 139.504C155.739 139.5 153.947 139.782 149.588 142C141.849 145.938 135.457 152.325 131.781 159.794L128.5 166.458L128.5 186.479C128.5 206.42 128.512 206.525 131.374 212.722C134.427 219.331 141.914 227.334 148.058 230.554C155.631 234.524 164.572 235.706 173.201 233.877M43 165L43 149L27 149L11 149L11 144L11 139L27 139L43 139L43 123L43 107L48 107L53 107L53 123L53 139L69 139L85 139L85 144L85 149L69 149L53 149L53 165L53 181L48 181L43 181L43 165M154 95.336C130.751 93.71 106.927 88.185 93.721 81.356C88.055 78.426 81.346 71.158 78.38 64.734L75.5 58.5L75.194 29.25L74.889 0L165.513 0L256.137 0L255.796 28.75C255.487 54.713 255.262 57.953 253.472 62.176C248.147 74.737 240.363 81.142 223.958 86.46C209.886 91.022 196.22 93.701 180.605 94.96C168.212 95.959 163.807 96.022 154 95.336M191.348 83.457C203.442 81.871 224.48 76.326 230.974 73.013C232.988 71.986 236.283 69.322 238.295 67.095C244.82 59.873 245.234 57.994 245.763 33.25L246.239 11L165.619 11L85 11L85 31.318C85 54.019 85.814 58.634 91.085 65.801C95.483 71.781 104.149 75.789 122.908 80.521C140.413 84.935 170.299 86.218 191.348 83.457" />
    <glyph glyph-name="add-29"
      unicode="&#xEA26;"
      horiz-adv-x="256" d=" M118.347 243.015C106.347 239.869 96.166 233.384 88.159 223.786C77.634 211.169 75.03 201.691 75.03 176C75.03 150.32 77.211 142.232 87.77 128.77C98.816 114.686 114.883 107.049 133.54 107.015C149.973 106.985 162.455 112.291 174.508 124.433C188.209 138.235 192 149.41 192 176C192 202.251 188.164 213.777 175 227.079C170.875 231.247 164.959 236.091 161.853 237.843C149.767 244.662 132.472 246.718 118.347 243.015M144.364 233.511C152.898 231.703 158.707 228.365 166.795 220.623C171.144 216.459 174.196 212.359 176.668 207.357C179.824 200.972 180.372 198.697 181.317 188.059C182.08 179.481 182.08 172.519 181.317 163.941C180.372 153.303 179.824 151.028 176.668 144.643C162.961 116.909 127.072 108.73 103.364 127.936C96.363 133.607 89.784 142.822 87.36 150.351C85.218 157.005 84.312 185.133 85.931 194.749C88.998 212.974 103.168 228.533 120.919 233.167C129.075 235.296 135.494 235.39 144.364 233.511M213.775 101.25L213.5 85.5L197.75 85.225L182 84.949L182 80L182 75.051L197.75 74.775L213.5 74.5L213.775 58.75L214.051 43L219.025 43L224 43L224 59L224 75L240 75L256 75L256 80L256 85L240 85L224 85L224 101L224 117L219.025 117L214.051 117L213.775 101.25M71.5 73.974C38.162 70.383 11.104 40.308 11.017 6.75L11 0L133.5 0L256 0L256 5.496L256 10.992L138.662 11.246L21.325 11.5L22.624 17.869C27 39.321 44.725 57.421 66.352 62.521C71.058 63.63 80.179 63.974 105.25 63.985L138 64L138 69.5L138 75L108.25 74.864C91.887 74.79 75.35 74.389 71.5 73.974" />
    <glyph glyph-name="add"
      unicode="&#xEA27;"
      horiz-adv-x="256" d=" M22 122.5L22 0L133.5 0L245 0L245 122.5L245 245L133.5 245L22 245L22 122.5M235 123L235 11L133.5 11L32 11L32 123L32 235L133.5 235L235 235L235 123M128 144L128 128L112 128L96 128L96 122.5L96 117L112 117L128 117L128 101L128 85L133 85L138 85L138 101L138 117L154 117L170 117L170 122.5L170 128L154 128L138 128L138 144L138 160L133 160L128 160L128 144" />
    <glyph glyph-name="agenda-bookmark"
      unicode="&#xEA28;"
      horiz-adv-x="256" d=" M32 122.526L32 0L114.75 0.006C162.875 0.009 199.954 0.413 203.364 0.972C214.987 2.875 224.921 10.206 230.667 21.119L233.5 26.5L233.77 121.16C234.038 215.268 234.027 215.853 231.935 221.444C228.988 229.322 220.869 237.864 212.782 241.599L206.5 244.5L119.25 244.776L32 245.053L32 122.526M75 189.987L75 144.973L92.98 156.987C102.869 163.594 111.428 169 112 169C112.572 169 121.131 163.594 131.02 156.987L149 144.973L149 190.011L149 235.05L165.25 234.775L181.5 234.5L181.754 122.75L182.009 11L112.004 11L42 11L42 122.333C42 183.567 42.3 233.967 42.667 234.333C43.033 234.7 50.458 235 59.167 235L75 235L75 189.987M139 200C139 180.75 138.772 165 138.494 165C138.215 165 132.14 168.895 124.994 173.656L112 182.311L99.006 173.656C91.86 168.895 85.785 165 85.506 165C85.228 165 85 180.75 85 200L85 235L112 235L139 235L139 200M209.891 231.463C215.438 228.444 218.999 224.421 222.024 217.756C223.888 213.65 223.956 210.297 223.956 122.5C223.956 33.125 223.92 31.42 221.921 27C217.519 17.263 208.093 11.027 197.75 11.01L192 11L192 123.137L192 235.274L198.386 234.761C202.746 234.411 206.397 233.365 209.891 231.463" />
    <glyph glyph-name="agenda"
      unicode="&#xEA29;"
      horiz-adv-x="256" d=" M32 122.475L32 -0.051L123.25 0.225C208.604 0.482 214.758 0.616 218.5 2.299C224.125 4.829 229.498 10.407 232.075 16.393L234.273 21.5L234.121 123.39C233.978 219.617 233.868 225.51 232.147 229.402C229.729 234.867 224.678 239.775 218.521 242.642L213.5 244.98L122.75 244.99L32 245L32 122.475M75.239 195.508L75.5 156.015L93.75 168.161L112 180.307L130.25 168.161L148.5 156.015L148.761 195.532L149.023 235.049L165.261 234.775L181.5 234.5L181.5 176L181.5 117.5L112 117.5L42.5 117.5L42.24 175C42.098 206.625 42.196 233.062 42.459 233.75C42.814 234.678 47.063 235 58.957 235L74.977 235L75.239 195.508M139 204.988L139 174.977L126.256 183.488C119.247 188.17 112.832 192 112 192C111.168 192 104.753 188.17 97.744 183.488L85 174.977L85 204.988L85 235L112 235L139 235L139 204.988M214.956 233.023C217.087 231.935 219.882 229.573 221.166 227.773L223.5 224.5L223.775 170.75L224.05 117L208.025 117L192 117L192 176L192 235L201.54 235C209.07 235 211.896 234.583 214.956 233.023M181.5 80L181.5 53.5L112 53.5L42.5 53.5L42.232 78.983C42.085 92.998 42.185 105.039 42.454 105.74C42.844 106.758 56.836 106.962 112.221 106.757L181.5 106.5L181.5 80M224 80L224 53L208 53L192 53L192 80L192 107L208 107L224 107L224 80M181.775 26.75L182.051 11L112.025 11L42 11L42 26.333C42 34.767 42.303 41.97 42.673 42.34C43.044 42.711 74.431 42.898 112.423 42.757L181.5 42.5L181.775 26.75M223.995 32.75C223.99 23.824 223.692 22.009 221.687 18.696C217.696 12.103 215.014 11.014 202.75 11.007L192 11L192 27L192 43L208 43L224 43L223.995 32.75" />
    <glyph glyph-name="air-baloon"
      unicode="&#xEA2A;"
      horiz-adv-x="256" d=" M121 244.375C112.806 242.777 102.729 239.441 96.995 236.428C78.613 226.768 64.051 209.897 57.353 190.5C54.845 183.234 54.587 181.169 54.546 168C54.506 155.31 54.789 152.689 56.815 147C62.703 130.463 75.281 107.739 90.695 85.787L98.269 75L133.127 75L167.986 75L173.589 82.577C188.202 102.336 204.033 130.536 209.476 146.5C215.904 165.352 213.072 187.731 201.855 206.743C197.627 213.908 184.361 227.4 176.508 232.521C170.157 236.662 161.736 240.389 153.5 242.702C148.479 244.113 125.675 245.286 121 244.375M147.792 233.441C172.055 228.535 194.155 207.485 200.418 183.317C203.207 172.554 203.413 163.505 201.073 154.5C198.026 142.776 186.789 120.839 174.049 101.75L162.871 85L133.516 85L104.16 85L99.296 91.75C85.989 110.217 73.097 132.932 67.855 147.148C60.083 168.227 64.896 191.903 80.684 210.263C97.834 230.205 122.191 238.618 147.792 233.441M96 26.5L96 0L133 0L170 0L170 26.5L170 53L133 53L96 53L96 26.5M160 27L160 11L133 11L106 11L106 26.333C106 34.767 106.3 41.967 106.667 42.333C107.033 42.7 119.183 43 133.667 43L160 43L160 27" />
    <glyph glyph-name="air-conditioner"
      unicode="&#xEA2D;"
      horiz-adv-x="256" d=" M128 203L128 171L133 171L138 171L138 203L138 235L133 235L128 235L128 203M75 170.5L75 149L80 149L85 149L85 170.5L85 192L80 192L75 192L75 170.5M182 170.5L182 149L187 149L192 149L192 170.5L192 192L187 192L182 192L182 170.5M11 64L11 11L133.5 11L256 11L256 64L256 117L133.5 117L11 117L11 64M245.5 64L245.5 21.5L133.25 21.246L21 20.991L21 64L21 107.009L133.25 106.754L245.5 106.5L245.5 64M54 58.5L54 53L133.5 53L213 53L213 58.5L213 64L133.5 64L54 64L54 58.5" />
    <glyph glyph-name="alarm-add"
      unicode="&#xEA2C;"
      horiz-adv-x="256" d=" M115.561 254.857C106.835 253.738 94.225 249.429 85.904 244.722C70.622 236.076 59.738 224.456 51.978 208.5C43.802 191.689 43.849 192.028 42.981 144C42.136 97.235 41.568 92.279 34.877 73.301C31.196 62.863 28.977 58.355 20.428 43.953C16.893 37.997 14 32.871 14 32.562C14 32.253 30.325 32 50.277 32L86.555 32L89.405 25.458C94.928 12.781 107.444 3.174 121.25 1.017C129.859 -0.329 139.507 1.084 146.979 4.786C154.754 8.637 163.098 17.43 166.595 25.458L169.445 32L205.723 32C225.675 32 242 32.236 242 32.524C242 32.812 238.626 38.788 234.503 45.803C218.72 72.652 213 94.109 213 126.461L213 139L202.353 139L191.705 139L192.297 120.25C193.107 94.64 196.227 78.181 203.87 59.213C205.041 56.305 206 53.718 206 53.463C206 53.208 170.9 53 128 53C85.1 53 50 53.213 50 53.474C50 53.735 51.298 57.222 52.884 61.224C54.47 65.226 56.768 72.077 57.992 76.449C62.616 92.972 63.204 99.596 63.909 143L64.583 184.5L67.27 191.977C76.876 218.702 103.337 236.52 130.554 234.59C137.477 234.099 150.098 231.512 155 229.58C156.175 229.116 157.123 231.163 159.378 239.033C160.961 244.558 162.086 249.235 161.878 249.427C161.068 250.175 144.135 254.022 137.5 254.965C129.418 256.114 125.202 256.093 115.561 254.857M192 229L192 213L176 213L160 213L160 202.5L160 192L176 192L192 192L192 176L192 160L202.5 160L213 160L213 176L213 192L229 192L245 192L245 202.5L245 213L229 213L213 213L213 229L213 245L202.5 245L192 245L192 229M146 31.078C146 30.571 144.117 28.544 141.815 26.574C133.183 19.185 122.181 19.228 113.929 26.683C111.768 28.635 110 30.63 110 31.116C110 31.602 118.1 32 128 32C138.319 32 146 31.607 146 31.078" />
    <glyph glyph-name="alarm-delete"
      unicode="&#xEA2B;"
      horiz-adv-x="256" d=" M115.315 255.06C107.627 253.836 96.371 250.215 89.535 246.769C84.795 244.379 73.644 237.473 71.075 235.337C70.545 234.896 81.963 218 82.792 218C83.124 218 86.518 220.094 90.332 222.653C108.806 235.048 129.233 238.009 149.369 231.211C166.861 225.306 183.069 208.538 189.204 190C191.22 183.91 191.4 180.759 192.07 140C192.464 116.075 192.834 96.387 192.893 96.25C193.093 95.783 201.68 95.997 207.603 96.616L213.5 97.233L213.213 137.866C212.99 169.385 212.58 180.291 211.385 186.484C203.848 225.542 171.066 253.724 131.186 255.429C125.309 255.68 118.167 255.514 115.315 255.06M13.491 241.991L6.536 234.982L26.414 215.086L46.291 195.19L45.027 190.845C44.159 187.862 43.52 173.174 42.988 144C42.136 97.238 41.566 92.273 34.877 73.301C31.196 62.863 28.977 58.355 20.428 43.953C16.893 37.997 14 32.871 14 32.562C14 32.253 30.325 32 50.277 32L86.555 32L89.405 25.458C92.902 17.43 101.246 8.637 109.021 4.786C120.39 -0.846 135.61 -0.846 146.979 4.786C154.754 8.637 163.098 17.43 166.595 25.458L169.445 32L189.459 32L209.472 32L222.239 19.262L235.006 6.523L242.248 13.765L249.49 21.007L135.497 135.003C72.8 197.702 21.265 249 20.975 249C20.684 249 17.317 245.846 13.491 241.991M187 53.753C187 53.339 156.175 53 118.5 53C80.825 53 50 53.213 50 53.474C50 53.735 51.298 57.222 52.884 61.224C54.47 65.226 56.773 72.093 58.002 76.485C62.611 92.956 63.143 98.791 63.69 138.89L64.214 177.279L125.607 115.893C159.373 82.13 187 54.167 187 53.753M146 31.078C146 30.571 144.117 28.544 141.815 26.574C133.183 19.185 122.181 19.228 113.929 26.683C111.768 28.635 110 30.63 110 31.116C110 31.602 118.1 32 128 32C138.319 32 146 31.607 146 31.078" />
    <glyph glyph-name="album-2"
      unicode="&#xEA2E;"
      horiz-adv-x="256" d=" M75 234.5L75 224L43 224L11 224L11 112L11 0L133.5 0L256 0L256 112L256 224L224 224L192 224L192 234.5L192 245L187 245L182 245L182 234.5L182 224L160 224L138 224L138 234.5L138 245L133 245L128 245L128 234.5L128 224L106.5 224L85 224L85 234.5L85 245L80 245L75 245L75 234.5M75 202.5L75 192L80 192L85 192L85 202.5L85 213L106.5 213L128 213L128 202.5L128 192L133 192L138 192L138 202.5L138 213L160 213L182 213L182 202.5L182 192L187 192L192 192L192 202.5L192 213L219 213L246 213L246 131.5C246 77.225 245.662 50 244.989 50C244.432 50 228.891 62.938 210.451 78.75C192.012 94.562 176.604 107.611 176.213 107.746C175.821 107.881 151.294 86.168 121.708 59.496L67.917 11L44.458 11L21 11L21 112L21 213L48 213L75 213L75 202.5M81.748 147.573C59.785 139.736 58.319 109.696 79.366 98.778C85.389 95.653 95.931 95.683 102 98.843C111.278 103.673 115.953 110.546 116.755 120.538C118.282 139.558 99.637 153.957 81.748 147.573M98.04 136.697C112.901 128.839 107.428 106.991 90.602 107.004C81.299 107.011 75.011 113.177 75.004 122.3C74.994 135.203 86.851 142.614 98.04 136.697M210.5 64.87C229.2 48.85 244.831 35.238 245.235 34.622C245.639 34.005 245.976 28.437 245.985 22.25L246 11L164.833 11C120.192 11 83.906 11.239 84.198 11.531C87.153 14.486 175.627 93.922 176 93.954C176.275 93.978 191.8 80.89 210.5 64.87" />
    <glyph glyph-name="album"
      unicode="&#xEA2F;"
      horiz-adv-x="256" d=" M75 229L75 213L53.5 213L32 213L32 106.5L32 0L133 0L234 0L234 106.5L234 213L213 213L192 213L192 229L192 245L187.025 245L182.051 245L181.775 229.25L181.5 213.5L160 213.5L138.5 213.5L138.225 229.25L137.949 245L132.975 245L128 245L128 229L128 213L106.5 213L85 213L85 229L85 245L80 245L75 245L75 229M224 107L224 11L133 11L42 11L42 106.333C42 158.767 42.3 201.967 42.667 202.333C43.033 202.7 83.983 203 133.667 203L224 203L224 107M75 128L75 96L133.5 96L192 96L192 128L192 160L133.5 160L75 160L75 128M182 128L182 107L133.5 107L85 107L85 128L85 149L133.5 149L182 149L182 128" />
    <glyph glyph-name="alcohol"
      unicode="&#xEA30;"
      horiz-adv-x="256" d=" M106.952 195.75L106.905 146.5L95.728 137.5C69.117 116.073 63.105 109.097 57.172 92.765L54.533 85.5L54.217 42.75L53.901 0L133.45 0L213 0L213 39.053C213 82.663 212.561 86.694 206.389 99.702C204.509 103.662 200.759 109.659 198.056 113.028C193.917 118.185 175.818 134.173 163.367 143.669L160 146.237L160 195.619L160 245L133.5 245L107 245L106.952 195.75M149.5 224L149.5 213.5L133.25 213.225L117 212.95L117 224L117 235.05L133.25 234.775L149.5 234.5L149.5 224M149.764 171.831L150.029 141.162L163.764 129.88C188.302 109.727 193.476 104.295 197.871 94.077C202.358 83.647 202.964 77.622 202.983 43.25L203 11L133.5 11L64 11L64.015 44.25C64.031 81.018 64.529 85.236 70.22 96.796C74.607 105.707 79.373 110.637 99.484 127.072L117 141.386L117 172.218L117 203.05L133.25 202.775L149.5 202.5L149.764 171.831M111.984 90.483L108.575 86.966L117.281 78.22L125.987 69.473L117.256 60.741L108.524 52.01L112.267 48.267L116.01 44.524L124.741 53.256L133.473 61.987L142.22 53.281L150.966 44.575L154.5 48L158.035 51.426L149.288 60.213L140.542 69L149.502 78.002L158.462 87.004L154.733 90.733L151.004 94.462L142.231 85.73L133.458 76.998L125.001 85.499C120.35 90.174 116.285 94 115.968 94C115.651 94 113.858 92.417 111.984 90.483" />
    <glyph glyph-name="alert-circle-exc"
      unicode="&#xEA31;"
      horiz-adv-x="256" d=" M119.5 244.347C118.4 244.115 112.849 243.011 107.165 241.893C83.521 237.244 60.039 223.87 43.15 205.432C1.357 159.808 0.287 89.284 40.684 42.809C69.79 9.324 113.835 -5.895 157 2.618C202.385 11.568 239.738 46.564 251.436 91.097C264.114 139.357 246.759 190.172 207.311 220.296C192.637 231.502 171.567 240.277 151.53 243.527C143.25 244.87 124.288 245.355 119.5 244.347M157.5 232.077C198.14 223.198 230.923 191.355 242.173 149.832C244.115 142.664 244.435 138.986 244.465 123.5C244.501 105.152 244 101.357 239.782 88C229.237 54.608 201.521 27.028 167.5 16.073C154.583 11.914 144.088 10.636 128.114 11.275C110.893 11.965 98.47 15.029 84.215 22.103C48.688 39.732 25.785 73.105 21.79 113.064C18.506 145.907 31.344 179.822 55.964 203.343C73.33 219.935 94.08 230.045 118.882 234.001C127.173 235.323 147.211 234.325 157.5 232.077M128 144L128 107L133 107L138 107L138 144L138 181L133 181L128 181L128 144M129.388 79.02C126.216 77.738 123 73.104 123 69.815C123 60.605 132.965 55.734 139.889 61.56C148.815 69.071 140.203 83.39 129.388 79.02" />
    <glyph glyph-name="alert-circle-i"
      unicode="&#xEA32;"
      horiz-adv-x="256" d=" M119.5 244.347C118.4 244.115 112.849 243.011 107.165 241.893C83.521 237.244 60.039 223.87 43.15 205.432C1.357 159.808 0.287 89.284 40.684 42.809C69.79 9.324 113.835 -5.895 157 2.618C202.385 11.568 239.738 46.564 251.436 91.097C264.114 139.357 246.759 190.172 207.311 220.296C192.637 231.502 171.567 240.277 151.53 243.527C143.25 244.87 124.288 245.355 119.5 244.347M157.5 232.077C198.14 223.198 230.923 191.355 242.173 149.832C244.115 142.664 244.435 138.986 244.465 123.5C244.501 105.152 244 101.357 239.782 88C229.237 54.608 201.521 27.028 167.5 16.073C154.583 11.914 144.088 10.636 128.114 11.275C110.893 11.965 98.47 15.029 84.215 22.103C48.688 39.732 25.785 73.105 21.79 113.064C18.506 145.907 31.344 179.822 55.964 203.343C73.33 219.935 94.08 230.045 118.882 234.001C127.173 235.323 147.211 234.325 157.5 232.077M130.313 185.801C120.645 183.296 120.645 168.704 130.313 166.199C134.575 165.094 137.442 165.754 140.434 168.526C145.021 172.777 145.021 179.223 140.434 183.474C137.442 186.246 134.575 186.906 130.313 185.801M107 133.5L107 128L117.5 128L128 128L128 101.5L128 75L117.5 75L107 75L107 69.5L107 64L133.5 64L160 64L160 69.5L160 75L149 75L138 75L138 107L138 139L122.5 139L107 139L107 133.5" />
    <glyph glyph-name="alert-circle-que"
      unicode="&#xEA33;"
      horiz-adv-x="256" d=" M119.5 244.347C118.4 244.115 112.849 243.011 107.165 241.893C83.521 237.244 60.039 223.87 43.15 205.432C1.357 159.808 0.287 89.284 40.684 42.809C69.79 9.324 113.835 -5.895 157 2.618C202.385 11.568 239.738 46.564 251.436 91.097C264.114 139.357 246.759 190.172 207.311 220.296C192.637 231.502 171.567 240.277 151.53 243.527C143.25 244.87 124.288 245.355 119.5 244.347M157.5 232.077C198.14 223.198 230.923 191.355 242.173 149.832C244.115 142.664 244.435 138.986 244.465 123.5C244.501 105.152 244 101.357 239.782 88C229.237 54.608 201.521 27.028 167.5 16.073C154.583 11.914 144.088 10.636 128.114 11.275C110.893 11.965 98.47 15.029 84.215 22.103C48.688 39.732 25.785 73.105 21.79 113.064C18.506 145.907 31.344 179.822 55.964 203.343C73.33 219.935 94.08 230.045 118.882 234.001C127.173 235.323 147.211 234.325 157.5 232.077M125.383 180.051C115.547 177.703 104.415 168.7 99.601 159.2C98.171 156.376 97 153.836 97 153.554C97 152.935 104.57 149 105.759 149C106.221 149 107.149 150.524 107.823 152.386C109.48 156.968 116.249 164.475 121.496 167.551C141.857 179.483 167.712 155.669 157.923 134C153.553 124.325 144.733 118.069 134.279 117.23L128 116.726L128 100.863L128 85L133 85L138 85L138 95.817L138 106.635L143.32 108.312C154.56 111.855 163.844 120.662 168.023 131.748C171.005 139.658 170.52 152.215 166.95 159.5C164.135 165.245 155.972 173.929 150.938 176.533C143.362 180.452 133.025 181.875 125.383 180.051M128.11 67.604C122.651 64.579 121.411 57.042 125.56 52.111C130.419 46.336 139.07 47.367 142.572 54.138C147.153 62.997 136.946 72.502 128.11 67.604" />
    <glyph glyph-name="alert-exc"
      unicode="&#xEA34;"
      horiz-adv-x="256" d=" M128 160L128 85L133 85L138 85L138 160L138 235L133 235L128 235L128 160M130.123 41.915C117.044 39.149 113.378 21.763 124.176 13.715C128.341 10.61 135.951 10.283 140.786 13C156.384 21.766 147.591 45.609 130.123 41.915" />
    <glyph glyph-name="alert-i"
      unicode="&#xEA36;"
      horiz-adv-x="256" d=" M130.123 233.915C117.044 231.149 113.378 213.763 124.176 205.715C128.341 202.61 135.951 202.283 140.786 205C156.384 213.766 147.591 237.609 130.123 233.915M86 154.5L86 149L107 149L128 149L128 85L128 21L107 21L86 21L86 16L86 11L133.5 11L181 11L181 15.98L181 20.96L159.75 21.23L138.5 21.5L138.243 90.75L137.986 160L111.993 160L86 160L86 154.5" />
    <glyph glyph-name="alert-que"
      unicode="&#xEA35;"
      horiz-adv-x="256" d=" M126 233.913C111.219 232.264 95.78 223.385 86.977 211.469C83.215 206.377 78 196.876 78 195.116C78 194.145 86.777 190.39 87.373 191.106C87.553 191.323 89.192 194.332 91.014 197.794C97.468 210.059 106.835 218.022 119.355 221.885C139.469 228.091 161.721 220.18 173.325 202.697C183.789 186.932 183.789 165.068 173.325 149.303C164.664 136.255 149.55 128 134.318 128L128 128L128 101.5L128 75L132.98 75L137.96 75L138.23 96.206L138.5 117.411L145 118.699C164.92 122.645 183.254 139.117 189.253 158.458C192.417 168.658 192.344 183.809 189.084 193.828C180.344 220.684 154.52 237.093 126 233.913M130.123 41.915C117.044 39.149 113.378 21.763 124.176 13.715C128.341 10.61 135.951 10.283 140.786 13C156.384 21.766 147.591 45.609 130.123 41.915" />
    <glyph glyph-name="alert-square-exc"
      unicode="&#xEA37;"
      horiz-adv-x="256" d=" M11 122.5L11 0L133.5 0L256 0L256 122.5L256 245L133.5 245L11 245L11 122.5M245.754 122.75L246.009 11L133.504 11L21 11L21 123.004L21 235.009L133.25 234.754L245.5 234.5L245.754 122.75M128 144L128 107L133 107L138 107L138 144L138 181L133 181L128 181L128 144M129.388 79.02C126.216 77.738 123 73.104 123 69.815C123 60.605 132.965 55.734 139.889 61.56C148.815 69.071 140.203 83.39 129.388 79.02" />
    <glyph glyph-name="alert-square-i"
      unicode="&#xEA38;"
      horiz-adv-x="256" d=" M11 122.5L11 0L133.5 0L256 0L256 122.5L256 245L133.5 245L11 245L11 122.5M245.754 122.75L246.009 11L133.504 11L21 11L21 123.004L21 235.009L133.25 234.754L245.5 234.5L245.754 122.75M130.313 185.801C120.645 183.296 120.645 168.704 130.313 166.199C134.575 165.094 137.442 165.754 140.434 168.526C145.021 172.777 145.021 179.223 140.434 183.474C137.442 186.246 134.575 186.906 130.313 185.801M107 133.5L107 128L117.5 128L128 128L128 101.5L128 75L117.5 75L107 75L107 69.5L107 64L133.5 64L160 64L160 69.5L160 75L149 75L138 75L138 107L138 139L122.5 139L107 139L107 133.5" />
    <glyph glyph-name="alert-square-que"
      unicode="&#xEA39;"
      horiz-adv-x="256" d=" M11 122.5L11 0L133.5 0L256 0L256 122.5L256 245L133.5 245L11 245L11 122.5M245.754 122.75L246.009 11L133.504 11L21 11L21 123.004L21 235.009L133.25 234.754L245.5 234.5L245.754 122.75M126.223 190.979C117.077 189.088 105.831 180.555 100.596 171.535C96.324 164.172 96.387 163.506 101.539 161.538C104.059 160.576 106.264 159.948 106.438 160.144C106.612 160.34 107.712 162.4 108.883 164.722C114.125 175.118 123.037 181.016 133.446 180.978C152.276 180.91 165.372 161.079 157.604 144.397C152.885 134.262 143.421 128 132.822 128L128 128L128 112L128 96L132.966 96L137.932 96L138.216 106.75L138.5 117.5L143 119.007C153.857 122.644 161.542 129.14 166.65 139C169.227 143.972 169.5 145.459 169.5 154.5C169.5 163.344 169.187 165.136 166.795 170.007C162.472 178.809 153.21 187.216 145 189.79C139.78 191.427 131.058 191.979 126.223 190.979M128.11 67.604C122.651 64.579 121.411 57.042 125.56 52.111C130.419 46.336 139.07 47.367 142.572 54.138C147.153 62.997 136.946 72.502 128.11 67.604" />
    <glyph glyph-name="alert"
      unicode="&#xEA3A;"
      horiz-adv-x="256" d=" M129.873 222.946C128.018 219.483 102.185 170.492 72.466 114.075L18.432 11.5L132.879 11.246C195.824 11.106 247.505 11.172 247.725 11.392C248.087 11.753 139.107 219.558 134.983 226.37L133.245 229.24L129.873 222.946M184.876 109.742C210.244 61.476 231 21.763 231 21.492C231 21.222 187.125 21 133.5 21C79.875 21 36 21.352 36 21.781C36 22.348 121.107 184.793 131.935 204.894C133.565 207.921 128.296 217.393 184.876 109.742M128 112L128 85L133 85L138 85L138 112L138 139L133 139L128 139L128 112M128.11 67.604C122.651 64.579 121.411 57.042 125.56 52.111C130.419 46.336 139.07 47.367 142.572 54.138C147.153 62.997 136.946 72.502 128.11 67.604" />
    <glyph glyph-name="alien-29"
      unicode="&#xEA3C;"
      horiz-adv-x="256" d=" M111.599 243.489C81.592 238.599 56.415 226.32 38.305 207.743C16.316 185.188 7.193 157.29 12.557 129.011C21.47 82.029 73.774 18.55 116.13 3.31C125.509 -0.064 139.399 -0.445 148 2.436C164.008 7.798 179.454 18.288 197.89 36.317C229.254 66.987 251.346 105.512 255.053 135.995C258.159 161.539 247.8 188.195 226.833 208.616C209.825 225.181 187.768 236.591 162.199 242.051C149.291 244.807 124.082 245.524 111.599 243.489M157.884 232.492C176.388 228.917 194.061 221.307 207.964 210.929C224.719 198.419 235.557 184.226 241.606 166.871C245.062 156.954 245.944 140.834 243.638 129.7C234.706 86.558 183.862 25.782 146 12.99C140.732 11.21 137.866 10.871 130.879 11.199C123.093 11.564 121.348 12.047 112.879 16.173C83.218 30.622 52.185 63.796 33.469 101.061C18.826 130.218 17.601 154.149 29.531 178C44.826 208.577 79.24 229.902 120.5 234.37C128.053 235.188 149.506 234.11 157.884 232.492M53.557 159.092C52.699 157.704 54.834 139.263 56.635 132.5C57.514 129.2 60.019 122.806 62.202 118.291C69.667 102.847 84.76 91.941 105.719 86.845C110.789 85.613 115.246 84.913 115.623 85.29C117.078 86.745 118.927 99.93 118.948 109C118.974 119.972 116.973 129.664 113.437 135.697C107.752 145.399 92.095 154.516 75.213 157.957C64.699 160.099 54.51 160.633 53.557 159.092M193.5 158.516C179.531 155.916 167.994 150.589 159.483 142.81C152.707 136.618 149.236 128.967 148.15 117.833C147.343 109.569 148.23 94.268 149.849 88.5C150.64 85.683 150.959 85.518 155.081 85.795C161.255 86.209 175.411 91.143 183.049 95.543C200.598 105.652 211.117 125.07 212.684 150.25L213.291 160L206.895 159.91C203.378 159.86 197.35 159.233 193.5 158.516M82.202 145.499C95.249 141.085 104.531 133.157 107.132 124.208C108.53 119.397 108.987 98.654 107.723 97.39C106.484 96.151 92.214 102.099 85.924 106.476C73.943 114.813 67.902 125.797 64.53 145.374L63.863 149.248L69.617 148.529C72.781 148.133 78.445 146.77 82.202 145.499M202 146.314C202 141.565 198.89 130.699 195.457 123.451C190.99 114.019 183.622 107.082 172.733 102.051C161.045 96.651 159.206 96.332 158.395 99.563C158.037 100.988 157.951 106.797 158.204 112.472C158.582 120.987 159.121 123.727 161.288 128.157C164.05 133.802 169.696 138.846 177.847 142.951C182.725 145.407 195.058 148.861 199.25 148.945C201.581 148.992 202 148.591 202 146.314" />
    <glyph glyph-name="alien-33"
      unicode="&#xEA3B;"
      horiz-adv-x="256" d=" M128 229.114L128 213.227L123.25 212.559C98.365 209.059 76.881 194.721 63.977 173C57.87 162.721 54.873 152.391 54.134 139.076L53.5 127.653L48 126.394C40.35 124.643 36.184 122.74 30.308 118.314C17.824 108.911 11 95.648 11 80.79L11 75L133.5 75L256 75L255.985 79.75C255.917 101.546 240.076 121.63 219.227 126.354L213.5 127.652L212.886 137.576C212.201 148.632 209.307 160.464 205.367 168.309C194.552 189.849 172.735 206.941 150.735 211.109C147.306 211.759 143.15 212.591 141.5 212.958L138.5 213.625L138.225 229.313L137.949 245L132.975 245L128 245L128 229.114M147.792 201.441C158.762 199.223 170.507 193.156 178.932 185.357C194.262 171.164 201.27 156.728 202.705 136.387L203.297 128L133.649 128L64 128L64.017 134.75C64.083 160.381 80.228 185.025 104.585 196.676C117.156 202.689 132.986 204.435 147.792 201.441M129.388 175.02C126.216 173.738 123 169.104 123 165.815C123 156.605 132.965 151.734 139.889 157.56C148.815 165.071 140.203 179.39 129.388 175.02M224.5 113.355C234.638 108.042 242.688 97.991 244.609 88.25L245.25 85L133.497 85L21.744 85L22.404 89.127C24.203 100.373 35.291 111.593 49 116.04C50.375 116.486 89.075 116.772 135 116.675L218.5 116.5L224.5 113.355M76.366 34.25C73.854 28.887 70.955 22.576 69.924 20.225L68.05 15.95L72.503 13.786C74.952 12.596 77.151 11.82 77.389 12.061C78.132 12.813 90 39.051 90 39.941C90 40.658 82.959 44 81.447 44C81.165 44 78.879 39.613 76.366 34.25M179.789 41.952L176.079 39.993L181.63 28.246C184.683 21.786 187.579 15.488 188.066 14.25C188.552 13.012 189.396 12 189.941 12C191.845 12 198 15.38 198.019 16.435C198.056 18.573 185.651 43.999 184.592 43.956C183.991 43.931 181.83 43.03 179.789 41.952M128 16L128 0L133 0L138 0L138 16L138 32L133 32L128 32L128 16" />
    <glyph glyph-name="align-bottom"
      unicode="&#xEA3D;"
      horiz-adv-x="256" d=" M54 144L54 64L85.5 64L117 64L117 144L117 224L85.5 224L54 224L54 144M107 144L107 75L85.5 75L64 75L64 144L64 213L85.5 213L107 213L107 144M150 112L150 64L181.5 64L213 64L213 112L213 160L181.5 160L150 160L150 112M203 112L203 75L181.5 75L160 75L160 112L160 149L181.5 149L203 149L203 112M11 26.5L11 21L133.5 21L256 21L256 26.5L256 32L133.5 32L11 32L11 26.5" />
    <glyph glyph-name="align-center-horizontal"
      unicode="&#xEA3E;"
      horiz-adv-x="256" d=" M128 224L128 203L107 203L86 203L86 171L86 139L107 139L128 139L128 123L128 107L91 107L54 107L54 75L54 43L91 43L128 43L128 21.5L128 0L132.98 0L137.96 0L138.23 21.25L138.5 42.5L175.75 42.762L213 43.024L213 75.012L213 107L175.475 107L137.949 107L138.225 122.75L138.5 138.5L159.75 138.77L181 139.04L181 171.02L181 203L159.5 203L138 203L138 224L138 245L133 245L128 245L128 224M171 170.5L171 149L133.5 149L96 149L96 170.5L96 192L133.5 192L171 192L171 170.5M203 74.5L203 53L133.5 53L64 53L64 74.5L64 96L133.5 96L203 96L203 74.5" />
    <glyph glyph-name="align-center-vertical"
      unicode="&#xEA3F;"
      horiz-adv-x="256" d=" M54 165.5L54 128L32.5 128L11 128L11 122.5L11 117L32.5 117L54 117L54 80L54 43L85.5 43L117 43L117 80L117 117L133.5 117L150 117L150 96L150 75L181.5 75L213 75L213 96L213 117L234.5 117L256 117L256 122.5L256 128L234.5 128L213 128L213 149.5L213 171L181.5 171L150 171L150 149.5L150 128L133.5 128L117 128L117 165.5L117 203L85.5 203L54 203L54 165.5M107 122.5L107 53L85.5 53L64 53L64 122.5L64 192L85.5 192L107 192L107 122.5M203 122.5L203 85L181.5 85L160 85L160 122.5L160 160L181.5 160L203 160L203 122.5" />
    <glyph glyph-name="align-center"
      unicode="&#xEA40;"
      horiz-adv-x="256" d=" M11 218.5L11 213L133.5 213L256 213L256 218.5L256 224L133.5 224L11 224L11 218.5M64 154.5L64 149L133 149L202 149L202 154.5L202 160L133 160L64 160L64 154.5M11 90.5L11 85L133.5 85L256 85L256 90.5L256 96L133.5 96L11 96L11 90.5M64 26.5L64 21L133 21L202 21L202 26.5L202 32L133 32L64 32L64 26.5" />
    <glyph glyph-name="align-justify"
      unicode="&#xEA41;"
      horiz-adv-x="256" d=" M11 218.5L11 213L133.5 213L256 213L256 218.5L256 224L133.5 224L11 224L11 218.5M11 154.5L11 149L133.5 149L256 149L256 154.5L256 160L133.5 160L11 160L11 154.5M11 90.5L11 85L133.5 85L256 85L256 90.5L256 96L133.5 96L11 96L11 90.5M11 26.5L11 21L133.5 21L256 21L256 26.5L256 32L133.5 32L11 32L11 26.5" />
    <glyph glyph-name="align-left-2"
      unicode="&#xEA42;"
      horiz-adv-x="256" d=" M11 218.5L11 213L133.5 213L256 213L256 218.5L256 224L133.5 224L11 224L11 218.5M11 154.5L11 149L80 149L149 149L149 154.5L149 160L80 160L11 160L11 154.5M11 90.5L11 85L133.5 85L256 85L256 90.5L256 96L133.5 96L11 96L11 90.5M11 26.5L11 21L80 21L149 21L149 26.5L149 32L80 32L11 32L11 26.5" />
    <glyph glyph-name="align-left"
      unicode="&#xEA43;"
      horiz-adv-x="256" d=" M32 122.5L32 0L37 0L42 0L42 122.5L42 245L37 245L32 245L32 122.5M75 171L75 139L154.5 139L234 139L234 171L234 203L154.5 203L75 203L75 171M224 170.5L224 149L154.5 149L85 149L85 170.5L85 192L154.5 192L224 192L224 170.5M75 75L75 43L122.5 43L170 43L170 75L170 107L122.5 107L75 107L75 75M160 74.5L160 53L122.5 53L85 53L85 74.5L85 96L122.5 96L160 96L160 74.5" />
    <glyph glyph-name="align-right-2"
      unicode="&#xEA44;"
      horiz-adv-x="256" d=" M11 218.5L11 213L133.5 213L256 213L256 218.5L256 224L133.5 224L11 224L11 218.5M118 154.5L118 149L187 149L256 149L256 154.5L256 160L187 160L118 160L118 154.5M11 90.5L11 85L133.5 85L256 85L256 90.5L256 96L133.5 96L11 96L11 90.5M118 26.5L118 21L187 21L256 21L256 26.5L256 32L187 32L118 32L118 26.5" />
    <glyph glyph-name="align-right"
      unicode="&#xEA45;"
      horiz-adv-x="256" d=" M224 122.5L224 0L229 0L234 0L234 122.5L234 245L229 245L224 245L224 122.5M32 171L32 139L112 139L192 139L192 171L192 203L112 203L32 203L32 171M181.77 170.75L181.5 149.5L112 149.5L42.5 149.5L42.23 170.75L41.96 192L112 192L182.04 192L181.77 170.75M96 75L96 43L144 43L192 43L192 75L192 107L144 107L96 107L96 75M181.77 74.75L181.5 53.5L144 53.5L106.5 53.5L106.23 74.75L105.96 96L144 96L182.04 96L181.77 74.75" />
    <glyph glyph-name="align-top"
      unicode="&#xEA46;"
      horiz-adv-x="256" d=" M11 218.5L11 213L133.5 213L256 213L256 218.5L256 224L133.5 224L11 224L11 218.5M54 133L54 85L85.5 85L117 85L117 133L117 181L85.5 181L54 181L54 133M150 101L150 21L181.5 21L213 21L213 101L213 181L181.5 181L150 181L150 101M107 133.5L107 96L85.5 96L64 96L64 133.5L64 171L85.5 171L107 171L107 133.5M203 101.5L203 32L181.5 32L160 32L160 101.5L160 171L181.5 171L203 171L203 101.5" />
    <glyph glyph-name="ambulance"
      unicode="&#xEA47;"
      horiz-adv-x="256" d=" M11 138.5L11 64L26.972 64L42.944 64L44.506 58.629C47.436 48.547 55.03 40.177 65.702 35.264C70.542 33.037 72.905 32.595 80 32.595C87.095 32.595 89.458 33.037 94.298 35.264C104.97 40.177 112.564 48.547 115.494 58.629L117.056 64L149.471 64L181.885 64L181.848 59.207C181.785 50.989 183.65 46.316 189.311 40.51C193.289 36.43 195.767 34.816 199.932 33.594C206.701 31.607 209.287 31.599 215.833 33.543C227.117 36.894 234.408 47.3 234.159 59.698L234.073 64L245.036 64L256 64L256 89.492L256 114.983L245 120.5L234 126.017L234 148.508L234 171L202 171L170 171L170 192L170 213L90.5 213L11 213L11 138.5M160 139L160 75L138.578 75L117.155 75L115.941 78.75C112.162 90.422 103.434 100.197 93.459 103.929C85.899 106.758 74.101 106.758 66.541 103.929C56.566 100.197 47.838 90.422 44.059 78.75L42.845 75L31.922 75L21 75L21 139L21 203L90.5 203L160 203L160 139M86 170.5L86 160L75 160L64 160L64 154.5L64 149L75 149L86 149L86 138.5L86 128L91 128L96 128L96 138.5L96 149L106.5 149L117 149L117 154.5L117 160L106.5 160L96 160L96 170.5L96 181L91 181L86 181L86 170.5M224.002 139.75L224.004 119.5L234.752 114L245.5 108.5L245.774 91.75L246.048 75L237.586 75C229.59 75 228.943 75.165 225.858 77.983C220.35 83.013 216.276 84.5 208 84.5C199.724 84.5 195.65 83.013 190.142 77.983C187.058 75.166 186.407 75 178.438 75L170 75L170 117.5L170 160L197 160L224 160L224.002 139.75M91.403 93.515C108.155 85.41 111.768 61.784 98.092 49.776C92.7 45.041 87.345 43.046 80 43.032C64.547 43.003 53.52 54.045 53.585 69.483C53.635 81.364 59.765 90.023 71.453 94.726C75.753 96.455 86.699 95.791 91.403 93.515M214.599 73.095C223.048 69.257 226.421 59.08 221.906 51.047C218.744 45.42 214.561 43 208 43C201.439 43 197.256 45.42 194.094 51.047C191.181 56.229 191.549 63.153 194.992 67.989C197.482 71.486 203.961 74.956 208 74.956C209.375 74.956 212.345 74.118 214.599 73.095" />
    <glyph glyph-name="analytics-88"
      unicode="&#xEA48;"
      horiz-adv-x="256" d=" M11 122.5L11 0L133.5 0L256 0L256 122.5L256 245L133.5 245L11 245L11 122.5M245.759 181.25L246.018 128L220.012 128L194.007 128L179.627 99.255L165.248 70.51L133.329 134.342L101.41 198.174L83.77 163.337L66.129 128.5L43.565 128.231L21 127.962L21 181.486L21 235.009L133.25 234.754L245.5 234.5L245.759 181.25M133.522 110.956C150.861 76.281 165.374 48.12 165.774 48.376C166.173 48.631 174.145 64.176 183.488 82.92L200.476 117L223.238 117L246 117L246 64L246 11L133.5 11L21 11L21 63.983L21 116.966L46.75 117.233L72.5 117.5L86.764 145.75C94.61 161.287 101.247 174 101.513 174C101.779 174 116.183 145.63 133.522 110.956" />
    <glyph glyph-name="analytics-89"
      unicode="&#xEA49;"
      horiz-adv-x="256" d=" M119.5 244.347C118.4 244.115 112.849 243.011 107.165 241.893C83.521 237.244 60.039 223.87 43.15 205.432C1.357 159.808 0.287 89.284 40.684 42.809C69.79 9.324 113.835 -5.895 157 2.618C202.385 11.568 239.738 46.564 251.436 91.097C264.114 139.357 246.759 190.172 207.311 220.296C192.637 231.502 171.567 240.277 151.53 243.527C143.25 244.87 124.288 245.355 119.5 244.347M157.5 232.077C167.961 229.792 176.229 226.668 186.536 221.109C218.302 203.975 241.402 169.798 244.62 135.174L245.287 128L219.647 128L194.007 128L179.627 99.255L165.248 70.51L133.329 134.342L101.41 198.174L83.77 163.337L66.129 128.5L43.55 128.231L20.97 127.962L21.563 132.231C24.11 150.594 28.348 164.596 34.807 176C52.833 207.824 82.327 228.171 118.882 234.001C127.173 235.323 147.211 234.325 157.5 232.077M133.522 110.956C150.861 76.281 165.374 48.12 165.774 48.376C166.173 48.631 174.145 64.176 183.488 82.92L200.476 117L222.876 117L245.276 117L244.6 110.396C239.511 60.732 199.621 19.171 150.114 11.953C137.409 10.101 116.869 11.207 104.5 14.409C79.743 20.82 55.551 38.018 40.734 59.74C30.124 75.294 24.563 90.859 21.622 113.233L21.131 116.967L46.816 117.233L72.5 117.5L86.764 145.75C94.61 161.287 101.247 174 101.513 174C101.779 174 116.183 145.63 133.522 110.956" />
    <glyph glyph-name="anchor"
      unicode="&#xEA4A;"
      horiz-adv-x="256" d=" M123 242.984C107.072 235.56 102.024 216.146 112.463 202.46C115.411 198.595 121.357 194.45 125.417 193.431L128 192.783L128 176.392L128 160L112 160L96 160L96 154.5L96 149L112 149L128 149L128 80L128 11L125.065 11C118.006 11 101.638 15.597 92.952 20.02C80.352 26.435 62.843 41.75 58.389 50.25L56.949 53L76.474 53L96 53L96 58.5L96 64L69.5 64L43 64L43 37.5L43 11L48 11L53 11L53 25.101L53 39.203L60.104 31.595C80.799 9.435 114.831 -2.935 144.512 0.915C168.708 4.053 188.708 13.708 205.226 30.226C209.502 34.502 213.225 38 213.5 38C213.775 38 214 31.925 214 24.5L214 11L219 11L224 11L224 37.5L224 64L197.5 64L171 64L171 58.521L171 53.042L190.648 52.771L210.295 52.5L204.21 44.843C194.398 32.499 179.998 22.001 165.115 16.343C157.787 13.557 146.454 11 141.435 11L138 11L138 80L138 149L154 149L170 149L170 154.5L170 160L154 160L138 160L138 176.013L138 192.025L143.263 194.353C153.782 199.005 159.327 207.285 159.433 218.5C159.532 228.904 155.25 236.396 146.144 241.752C139.993 245.37 129.336 245.937 123 242.984M141.864 232.268C148.939 227.029 151.237 217.182 147.005 210.241C139.281 197.571 118.904 202.302 117.312 217.136C115.94 229.907 131.829 239.699 141.864 232.268" />
    <glyph glyph-name="android"
      unicode="&#xEA4B;"
      horiz-adv-x="256" d=" M43.979 243.478L40.566 239.957L56.927 223.573L73.289 207.189L69.748 202.844C64.783 196.752 59.547 186.734 57.025 178.5C53.921 168.366 53.448 155.277 53.818 89.75L54.145 32L70.072 32L86 32L86 16L86 0L91 0L96 0L96 16L96 32L133.5 32L171 32L171 16L171 0L176 0L181 0L181 16L181 32L197.039 32L213.078 32L212.761 100.75C212.476 162.368 212.264 170.122 210.712 175.5C208.426 183.421 202.04 196.35 197.436 202.38L193.741 207.219L210.107 223.607L226.472 239.995L222.733 243.733L218.995 247.472L202.636 231.136L186.278 214.8L180.023 219.404C166.031 229.705 152.044 234.133 133.5 234.133C114.824 234.133 98.72 228.96 85.935 218.854L80.759 214.763L64.619 230.882C55.741 239.747 48.234 247 47.935 247C47.637 247 45.856 245.415 43.979 243.478M148.412 222.501C178.309 216.167 200.407 190.087 202.626 158.516L203.295 149L133.502 149L63.709 149L64.268 158.75C65.517 180.531 75.658 198.794 93.629 211.627C109.004 222.605 129.095 226.593 148.412 222.501M98.313 185.801C88.645 183.296 88.645 168.704 98.313 166.199C100.066 165.745 102.501 165.564 103.724 165.798C106.764 166.379 110.781 170.28 111.568 173.415C112.486 177.072 111.326 180.793 108.434 183.474C105.442 186.246 102.575 186.906 98.313 185.801M162.313 185.801C152.645 183.296 152.645 168.704 162.313 166.199C166.575 165.094 169.442 165.754 172.434 168.526C177.021 172.777 177.021 179.223 172.434 183.474C169.442 186.246 166.575 186.906 162.313 185.801M11 106.5L11 64L16 64L21 64L21 106.5L21 149L16 149L11 149L11 106.5M246 106.5L246 64L251 64L256 64L256 106.5L256 149L251 149L246 149L246 106.5M203 91L203 43L133.5 43L64 43L64 91L64 139L133.5 139L203 139L203 91" />
    </font>
</defs>
</svg>
